<?xml version="1.0" encoding="UTF-8" standalone="no"?>
<!-- Created with Inkscape (http://www.inkscape.org/) -->

<svg
   width="708.35602"
   height="318.00702"
   viewBox="0 0 187.41919 84.139357"
   version="1.1"
   id="svg1"
   inkscape:version="1.4 (e7c3feb100, 2024-10-09)"
   sodipodi:docname="rt-logo.svg.2024_11_06_09_36_35.0.svg"
   xmlns:inkscape="http://www.inkscape.org/namespaces/inkscape"
   xmlns:sodipodi="http://sodipodi.sourceforge.net/DTD/sodipodi-0.dtd"
   xmlns="http://www.w3.org/2000/svg"
   xmlns:svg="http://www.w3.org/2000/svg">
  <sodipodi:namedview
     id="namedview1"
     pagecolor="#000000"
     bordercolor="#000000"
     borderopacity="0.25"
     inkscape:showpageshadow="2"
     inkscape:pageopacity="0.0"
     inkscape:pagecheckerboard="0"
     inkscape:deskcolor="#d1d1d1"
     inkscape:document-units="mm"
     inkscape:zoom="0.28868991"
     inkscape:cx="983.7545"
     inkscape:cy="853.85734"
     inkscape:window-width="1536"
     inkscape:window-height="792"
     inkscape:window-x="0"
     inkscape:window-y="0"
     inkscape:window-maximized="1"
     inkscape:current-layer="layer1">
    <inkscape:page
       x="0"
       y="0"
       width="187.41919"
       height="84.139359"
       id="page2"
       margin="0"
       bleed="0" />
  </sodipodi:namedview>
  <defs
     id="defs1" />
  <g
     inkscape:label="Layer 1"
     inkscape:groupmode="layer"
     id="layer1"
     transform="translate(-161.51067,-104.8769)">
    <title
       id="title1">Retail Therapy</title>
    <path
       d="m 212.55412,143.36458 q -0.14761,-2.76412 -0.36658,-6.74854 -0.22019,-3.98565 -0.46376,-8.50888 l -0.44039,-9.02308 a 3081.5004,3081.5004 0 0 0 -0.36658,-8.16689 78.728952,78.728952 0 0 1 2.66448,-0.1956 q 1.66315,-0.12301 3.56987,-0.22019 1.93132,-0.12178 3.76545,-0.19559 1.83414,-0.0738 3.20329,-0.0738 1.93132,0 3.91184,0.36781 a 12.055371,12.055371 0 0 1 3.69288,1.24613 7.0733043,7.0733043 0 0 1 2.71369,2.56853 q 1.02717,1.66069 1.02717,4.30303 0,2.5181 -1.34454,4.79263 -1.32117,2.24869 -3.25249,3.30046 0.56217,1.10098 1.22276,2.59191 0.68395,1.46632 1.34454,3.10487 0.68396,1.61394 1.29657,3.17868 0.63475,1.56474 1.12434,2.86131 0.4896,1.27073 0.73317,2.05433 -0.90539,0.53757 -2.39632,1.02593 -1.49093,0.465 -3.05566,0.83158 a 68.887833,68.887833 0 0 1 -4.03486,0.83157 60.276854,60.276854 0 0 0 -0.51297,-2.17734 q -0.36904,-1.4651 -0.85618,-3.27586 a 548.64239,548.64239 0 0 0 -1.88211,-6.87034 59.046714,59.046714 0 0 0 -0.63598,-2.10354 12.301399,12.301399 0 0 0 -0.56218,0.0984 q -0.22142,0.0492 -0.46499,0.0738 -0.22143,0 -0.56217,0.0246 0.0972,0.68273 0.22019,1.98053 0.12178,1.27073 0.24357,2.88468 0.12301,1.61517 0.22142,3.30169 0.12179,1.66069 0.16976,3.12947 0.0738,1.44173 0.0738,2.37172 -1.22153,0.2694 -2.95848,0.39118 -1.71236,0.14762 -3.56987,0.1956 -1.83414,0.0492 -3.47145,0.0492 z m 8.19274,-21.493 q 0.56094,0 1.17232,-0.0246 a 29.523357,29.523357 0 0 0 1.56474,-0.17099 7.7498813,7.7498813 0 0 0 1.85751,-0.46376 q 0.8082,-0.31984 1.22399,-0.85618 a 2.1158406,2.1158406 0 0 0 0.44039,-1.34454 q 0,-0.88078 -0.465,-1.24736 -0.46499,-0.39119 -1.34454,-0.4896 a 19.682238,19.682238 0 0 0 -2.95849,-0.0738 11.071259,11.071259 0 0 0 -0.75899,0.0738 8.6109792,8.6109792 0 0 0 -0.68396,0.0738 q -0.294,0.0246 -0.48959,0.0492 0.0492,0.41579 0.0984,0.87955 l 0.0984,0.95336 q 0.0738,0.4896 0.0972,0.97919 0.0492,0.46376 0.0738,0.90415 0.048,0.41456 0.0738,0.75777 m 40.88123,17.23795 q -0.78236,0.92875 -1.88211,1.68775 a 11.071259,11.071259 0 0 1 -2.51933,1.29534 q -1.4171,0.51299 -3.22663,0.78239 -1.81077,0.29523 -4.01026,0.294 -3.71625,0 -6.65137,-1.34577 a 10.456189,10.456189 0 0 1 -4.57243,-4.08284 q -1.66068,-2.71368 -1.66191,-6.82235 0,-4.25383 1.66191,-7.43251 1.68776,-3.17868 4.74342,-4.93901 3.05567,-1.76033 7.21355,-1.76033 5.23301,0 8.31328,2.7629 3.0815,2.73706 3.0815,7.77448 0,0.97796 -0.0738,1.73696 -0.0738,0.73316 -0.2694,1.61394 a 51.665875,51.665875 0 0 0 -1.73573,-0.0492 779.90869,779.90869 0 0 0 -2.95848,-0.0492 q -1.61395,-0.0246 -2.95849,-0.0492 a 120.55371,120.55371 0 0 0 -1.76033,-0.0246 q -1.88211,0 -3.49729,0.17222 a 28.293217,28.293217 0 0 0 -2.49349,0.31738 q 0,0.29523 0.0246,0.61138 0.0492,0.29523 0.14639,0.56217 a 2.7063077,2.7063077 0 0 0 0.85617,1.15018 q 0.58678,0.46376 1.41713,0.70856 0.8328,0.22143 1.78493,0.2202 0.68642,0 1.34577,-0.0984 a 6.5197414,6.5197414 0 0 0 1.31994,-0.34198 7.1348113,7.1348113 0 0 0 1.34455,-0.70856 10.210161,10.210161 0 0 0 1.41835,-1.12558 q 0.14761,0.12301 0.85617,0.85618 0.73317,0.73439 1.66192,1.80953 0.92999,1.07637 1.78494,2.2733 0.85617,1.17478 1.29656,2.20195 z m -14.84163,-13.54631 a 20.912378,20.912378 0 0 1 1.7837,-0.21896 q 1.1022,-0.0984 2.59314,-0.0984 a 47.975455,47.975455 0 0 1 2.68908,0.0738 q 0,-0.31984 -0.12301,-0.7344 a 2.3372658,2.3372658 0 0 0 -0.65936,-1.07514 3.1983637,3.1983637 0 0 0 -1.14895,-0.759 3.8749406,3.8749406 0 0 0 -1.54013,-0.29277 q -1.19816,0 -1.98053,0.56218 a 3.6166113,3.6166113 0 0 0 -1.17355,1.27196 q -0.36782,0.73316 -0.44039,1.27073 m 39.75812,14.91544 q -0.54003,0.71103 -1.68775,1.56474 -1.12558,0.83035 -2.86131,1.41835 -1.7345,0.61261 -4.05946,0.61138 -3.10487,0 -5.18258,-1.27073 a 7.9959092,7.9959092 0 0 1 -3.08027,-3.42347 q -1.02717,-2.15152 -1.02717,-4.76803 -0.001,-1.44295 0.0246,-2.8859 a 815.58274,815.58274 0 0 1 0.19559,-5.25639 q 0.0738,-1.17356 0.12301,-2.05434 0.0713,-0.87955 0.0972,-1.41835 -1.59057,0.17222 -3.17868,0.39119 -1.56597,0.19682 -2.27453,0.34321 a 36.904196,36.904196 0 0 1 -0.46499,-3.54527 55.356295,55.356295 0 0 1 -0.2202,-3.05689 q -0.0738,-1.29534 -0.0738,-1.56474 1.44418,-0.17222 2.91051,-0.2694 1.49093,-0.12179 3.27709,-0.1956 -0.0492,-0.34197 -0.12301,-1.46632 a 121.78385,121.78385 0 0 0 -0.0984,-1.98053 q -0.0246,-0.83034 -0.0972,-1.68775 -0.0738,-0.87955 -0.12301,-1.34454 l 8.97387,-0.90415 q -0.0246,0.24356 -0.0492,1.12434 v 2.10231 q 0,0.75654 0.0246,1.7099 0.0258,0.95459 0.0738,2.02973 0.85617,-0.0492 1.93132,-0.0984 1.10097,-0.0713 1.71235,-0.0972 0.95336,-0.0738 1.61394,-0.0984 0.68396,-0.0246 1.09975,-0.0246 h 0.61138 q 0.19559,1.49339 0.2448,3.66827 0.0738,2.17735 0.0738,3.91185 -0.24479,0 -1.54136,0.0738 -1.29657,0.0738 -2.5181,0.14762 -0.83034,0.0492 -1.88211,0.14638 -1.0284,0.0738 -1.51676,0.12302 -0.0246,0.43916 -0.0738,1.09974 -0.0246,0.66059 -0.0492,1.49093 l -0.048,1.73573 -0.0492,1.83414 v 1.76033 q 0,1.66315 0.12302,2.8613 0.14761,1.19939 0.58677,1.85751 0.44039,0.63599 1.36915,0.63599 0.58677,0 1.05177,-0.24357 0.46499,-0.24603 0.83157,-0.58678 a 8.6109792,8.6109792 0 0 0 0.65936,-0.73439 q 0.39118,0.58677 1.07637,1.51676 l 1.41835,1.93132 q 0.75777,1.00133 1.34454,1.80831 0.61015,0.78359 0.83158,1.07636 z m 11.53994,2.66572 q -3.00769,0 -5.50119,-0.80697 -2.49472,-0.83158 -3.98565,-2.69031 -1.49093,-1.85875 -1.4897,-4.93902 0,-3.15284 1.7837,-4.98698 1.78617,-1.85874 4.62164,-2.64111 a 21.650462,21.650462 0 0 1 5.96618,-0.80697 q 1.0284,0 1.95592,0.17098 0.95336,0.14762 1.68775,0.41579 0.73317,0.24357 1.12435,0.53757 0,-0.5142 -0.2448,-1.14895 a 2.5832938,2.5832938 0 0 0 -0.68395,-1.02716 5.7816574,5.7816574 0 0 0 -1.51554,-0.97797 q -0.90415,-0.41578 -2.5673,-0.41578 -1.59057,0 -2.93511,0.75776 -1.34332,0.759 -2.05434,1.63855 l -7.30949,-4.69421 q 1.12435,-1.51554 3.05567,-2.64111 1.95592,-1.14895 4.37684,-1.78494 a 20.05128,20.05128 0 0 1 5.06202,-0.63598 q 4.47525,0 7.13974,1.32117 2.68785,1.29534 4.03485,3.86264 0.60892,1.15018 1.00134,2.5673 0.39118,1.41958 0.58677,3.0815 0.12302,1.12435 0.17222,2.37171 0.0738,1.22153 0.0726,2.5673 0,2.02973 0.36658,2.66449 0.39119,0.61261 1.05177,0.61138 0.56218,0 1.02717,-0.12302 0.48837,-0.14515 0.68396,-0.34075 l 2.66571,6.38073 q -0.36781,0.5142 -1.56474,1.07638 -1.19938,0.5388 -3.22788,0.53757 -1.44173,0 -2.83671,-0.44039 -1.36914,-0.43916 -2.3225,-1.24614 -0.92876,-0.83034 -1.07637,-1.98051 -0.31738,0.95335 -1.46633,1.8329 -1.14895,0.85617 -3.0569,1.39375 -1.90794,0.53757 -4.59703,0.5388 m 2.12814,-7.01794 q 0.87955,0 1.85751,-0.26817 a 11.686329,11.686329 0 0 0 1.80954,-0.63599 q 0.80697,-0.36658 1.12435,-0.63598 a 7.3808393,7.3808393 0 0 1 -0.14639,-0.80697 11.071259,11.071259 0 0 1 -0.0492,-0.83158 q -0.43916,-0.19559 -1.61271,-0.34197 a 14.761679,14.761679 0 0 0 -2.22655,-0.17222 q -1.00134,0 -2.0039,0.14761 -0.97796,0.14762 -1.63855,0.53757 -0.65935,0.36782 -0.65935,1.10098 0,0.66181 0.41456,1.07514 0.41578,0.41702 1.19815,0.63598 0.8082,0.19683 1.93132,0.19683 m 28.75452,6.57755 q -0.44162,0.0246 -1.90671,0.12301 a 45.515176,45.515176 0 0 1 -3.08151,0.0972 q -1.12557,0 -2.32373,-0.0738 a 28.293217,28.293217 0 0 1 -2.34711,-0.19559 q 0.0984,-0.63475 0.2694,-2.5673 0.17099,-1.93131 0.34198,-4.54782 0.19683,-2.63865 0.36658,-5.45198 0.17222,-2.8121 0.26941,-5.28222 0.0984,-2.46889 0.0984,-3.98565 0.63475,-0.0492 1.8083,-0.0984 1.19816,-0.048 2.56853,-0.0972 a 164.83874,164.83874 0 0 1 2.61528,-0.0738 q 1.24736,-0.0492 1.98053,-0.0492 0.17222,0.8328 0.2694,2.73952 0.0984,1.88211 0.0984,4.20584 0,2.20196 -0.0738,4.57243 -0.0738,2.34711 -0.22142,4.52323 a 62.737134,62.737134 0 0 1 -0.31738,3.79006 q -0.19559,1.63854 -0.41456,2.37171 M 325.39732,117.79 q -2.56731,0 -4.40144,-1.46756 -1.80831,-1.46633 -1.80954,-3.96105 0,-1.66192 0.85618,-2.86131 a 5.5971365,5.5971365 0 0 1 2.19949,-1.8329 6.5197414,6.5197414 0 0 1 2.8613,-0.66182 q 2.39631,0 4.01026,1.51553 1.63854,1.51677 1.63854,3.93645 0,2.27453 -1.56473,3.81466 -1.54137,1.51677 -3.79006,1.51677 m 23.37511,24.13288 q -0.7836,0.66058 -2.93388,1.27196 -2.15274,0.63476 -4.62164,0.63476 -3.12947,0 -4.79262,-1.34455 -1.66315,-1.34454 -2.27453,-3.83803 -0.61015,-2.5181 -0.61015,-5.94158 0,-3.00769 0.0492,-5.79519 0.048,-2.8121 0.12178,-5.404 0.0984,-2.59191 0.19559,-4.96362 0.12179,-2.39631 0.2448,-4.57243 0.12179,-2.17734 0.24357,-4.13327 2.17735,-0.14515 3.98565,-0.14515 a 52.896015,52.896015 0 0 1 4.84183,0.21896 q -0.14761,2.39632 -0.3186,5.08663 a 638.4426,638.4426 0 0 0 -0.31738,5.3548 q -0.14762,2.66448 -0.2694,5.0608 a 387.49406,387.49406 0 0 0 -0.19559,4.23045 q -0.0738,1.80953 -0.0738,2.76289 0,1.39375 0.0984,2.5181 0.12301,1.12435 0.4896,1.78493 0.39118,0.66059 1.14895,0.66059 0.75776,0 1.24736,-0.29401 0.51297,-0.29277 0.83157,-0.78237 0.16976,0.36905 0.58678,1.46756 0.43916,1.09975 0.92876,2.42092 0.51296,1.31994 0.90538,2.39631 0.39118,1.05177 0.48836,1.34454 M 162.09748,152.4873 q -0.14762,-0.63721 -0.2694,-1.85874 -0.0984,-1.24736 -0.17099,-2.61651 a 292.77329,292.77329 0 0 1 -0.12302,-2.44552 q -0.0234,-1.07514 -0.0234,-1.41712 2.71246,-0.22142 6.16177,-0.36781 3.44686,-0.17099 6.99335,-0.17099 2.73829,0 5.3548,0.12301 2.6165,0.12179 4.76802,0.44039 0,2.59068 -0.19682,4.7668 -0.19436,2.15274 -0.46377,3.17868 h -2.8367 q -0.87955,-0.0246 -1.7345,-0.0246 -0.83157,-0.0246 -1.44418,-0.048 0.0492,0.90538 0.12301,2.5919 0.0984,1.68653 0.1956,3.83804 0.12178,2.12814 0.24479,4.47525 0.14762,2.3225 0.26817,4.54783 0.12302,2.22532 0.22143,4.05946 0.0972,1.8083 0.16976,2.95848 0.0726,1.15019 0.0738,1.29534 -1.24736,0.19682 -3.20328,0.34198 a 77.498813,77.498813 0 0 1 -3.86264,0.24603 63.967274,63.967274 0 0 1 -3.13071,0.0972 268.17049,268.17049 0 0 1 -0.26817,-7.33532 l -0.0984,-4.40144 a 426.85854,426.85854 0 0 1 -0.0984,-8.50888 v -2.15275 q 0.0246,-1.02716 0.0492,-1.85751 -0.75654,0.0738 -1.56474,0.12302 -0.80697,0.0246 -1.66192,0.0738 l -1.71235,0.048 z m 34.64689,23.79091 q -0.68396,0.12178 -1.93132,0.19559 -1.22153,0.0738 -2.56731,0.0738 -1.58811,0 -2.93388,-0.12302 -1.34577,-0.0984 -1.98052,-0.34198 0.17099,-1.32117 0.31737,-3.47268 0.17222,-2.17612 0.2694,-4.91441 0.12302,-2.7629 0.12302,-5.79396 0,-3.40011 -0.12302,-6.94537 a 281.70203,281.70203 0 0 0 -0.3186,-6.89493 537.57113,537.57113 0 0 0 -0.34198,-6.0892 q 0.19682,-0.0738 1.31994,-0.24356 a 131.62497,131.62497 0 0 1 5.50241,-0.70856 q 1.36915,-0.14762 2.02973,-0.14762 0.39119,1.83291 0.70856,4.23045 0.31738,2.39754 0.53758,5.28099 0.24602,2.86008 0.3432,6.163 0.83035,-0.83157 2.02974,-1.44295 a 11.071259,11.071259 0 0 1 2.56607,-0.92999 11.317287,11.317287 0 0 1 2.71492,-0.34198 q 3.15407,0 4.76802,1.09975 1.63608,1.07637 2.22409,3.22788 0.58678,2.12692 0.58678,5.3056 0,2.02973 -0.17099,4.32886 a 73.808393,73.808393 0 0 1 -0.41579,4.42481 47.975455,47.975455 0 0 1 -0.56217,3.76546 q -1.05177,0.17222 -2.15152,0.2694 -1.09974,0.0984 -2.20072,0.0984 -1.19815,0 -2.37171,-0.12301 a 19.682238,19.682238 0 0 1 -2.17612,-0.29277 q 0.17222,-1.053 0.36659,-2.54393 0.19682,-1.51554 0.36658,-3.08027 0.19682,-1.58934 0.294,-2.95849 0.12302,-1.36915 0.12302,-2.17735 0,-1.09851 -0.27064,-1.8083 -0.24233,-0.70979 -0.73316,-1.05177 -0.46376,-0.34198 -1.14895,-0.34198 a 3.6904196,3.6904196 0 0 0 -1.12435,0.17099 q -0.5388,0.17222 -1.02716,0.46499 a 6.1506994,6.1506994 0 0 0 -0.92876,0.68396 7.3808393,7.3808393 0 0 0 -0.80697,0.83157 q 0,2.39632 -0.14762,4.71882 a 70.117973,70.117973 0 0 1 -0.34198,4.25505 45.515176,45.515176 0 0 1 -0.41578,3.17869 m 43.1816,-3.79007 q -0.78237,0.92876 -1.88212,1.68653 a 11.071259,11.071259 0 0 1 -2.51932,1.29656 q -1.41836,0.51297 -3.22789,0.78237 -1.80831,0.29278 -4.01026,0.29278 -3.71625,0 -6.65013,-1.34455 a 10.456189,10.456189 0 0 1 -4.57243,-4.08406 q -1.66315,-2.71369 -1.66315,-6.82113 0,-4.25505 1.66315,-7.43373 1.68775,-3.17745 4.74342,-4.93901 3.05566,-1.7591 7.21354,-1.7591 5.23178,0 8.31328,2.76166 3.0815,2.73829 3.08027,7.77571 0,0.97797 -0.0738,1.73573 -0.0738,0.73439 -0.26817,1.61394 a 51.665875,51.665875 0 0 0 -1.73573,-0.0492 q -1.32117,-0.0246 -2.95848,-0.0492 -1.61395,-0.0246 -2.95972,-0.048 a 120.55371,120.55371 0 0 0 -1.7591,-0.0246 q -1.88334,0 -3.49729,0.17221 a 28.293217,28.293217 0 0 0 -2.49349,0.31738 q -0.001,0.29277 0.0246,0.61138 0.0492,0.29277 0.14639,0.56217 a 2.7063077,2.7063077 0 0 0 0.85494,1.14896 q 0.58678,0.46499 1.41835,0.70979 0.83035,0.22019 1.78494,0.22019 0.68519,0 1.34454,-0.0984 a 6.5197414,6.5197414 0 0 0 1.32117,-0.34198 7.1348113,7.1348113 0 0 0 1.34454,-0.70979 10.210161,10.210161 0 0 0 1.41835,-1.12435 q 0.14762,0.12179 0.85618,0.85618 0.73317,0.73193 1.66192,1.80831 0.92999,1.0776 1.78493,2.27452 0.85618,1.17356 1.29657,2.20072 m -14.84164,-13.5463 a 20.912378,20.912378 0 0 1 1.78371,-0.22019 q 1.1022,-0.0984 2.5919,-0.0984 a 47.975455,47.975455 0 0 1 2.69032,0.0738 q 0,-0.31738 -0.12302,-0.73317 a 2.3372658,2.3372658 0 0 0 -0.65935,-1.07637 3.1983637,3.1983637 0 0 0 -1.14895,-0.75777 3.8749406,3.8749406 0 0 0 -1.54137,-0.294 q -1.19815,0 -1.98052,0.5634 a 3.6166113,3.6166113 0 0 0 -1.17356,1.27074 q -0.36658,0.73316 -0.43916,1.27196 m 26.62638,-4.84183 q 0.44039,-1.02593 1.44296,-2.00512 1.00256,-1.00257 2.47012,-1.63732 1.49093,-0.66059 3.30046,-0.66059 1.09975,0 2.17612,0.2448 1.07638,0.24357 1.51554,0.58678 l -1.88212,9.68243 a 20.912378,20.912378 0 0 0 -1.31994,-0.44039 5.4126155,5.4126155 0 0 0 -1.73696,-0.26817 q -0.92875,0 -1.7591,0.29277 a 5.2896015,5.2896015 0 0 0 -1.51676,0.80697 q -0.68396,0.53881 -1.32117,1.31994 0.19559,1.2486 0.46499,3.25249 0.294,2.00513 0.56217,4.15788 0.26941,2.14905 0.44039,3.91184 0.1956,1.7345 0.1956,2.5181 -2.17735,0.294 -4.91441,0.39118 -2.73706,0.0972 -5.3548,0.0984 0,-1.90671 -0.12302,-4.57366 a 206.6635,206.6635 0 0 0 -0.75776,-11.51657 q -0.24357,-2.86007 -0.53757,-5.1592 -0.29524,-2.32128 -0.58678,-3.61784 a 44.285036,44.285036 0 0 1 3.27586,-0.759 71.348113,71.348113 0 0 1 3.17868,-0.58678 q 1.39498,-0.21896 1.76034,-0.24356 0.29523,0.61014 0.66058,1.95592 0.36658,1.31994 0.36658,2.24869 m 22.93595,22.42176 q -3.00646,0 -5.50241,-0.80697 -2.49349,-0.83034 -3.98565,-2.68908 -1.49093,-1.85752 -1.49093,-4.93902 0,-3.15408 1.78493,-4.98821 1.78493,-1.85751 4.62163,-2.64111 a 21.650462,21.650462 0 0 1 5.96618,-0.80698 q 1.02594,0 1.95593,0.17222 0.95335,0.14762 1.68652,0.41456 0.73439,0.24603 1.12558,0.5388 0,-0.5142 -0.24603,-1.14895 a 2.5832938,2.5832938 0 0 0 -0.68396,-1.02717 5.7816574,5.7816574 0 0 0 -1.51553,-0.97796 q -0.90416,-0.41701 -2.5673,-0.41578 -1.58812,0 -2.93389,0.75776 -1.347,0.75777 -2.05433,1.63855 l -7.31072,-4.69545 q 1.12558,-1.51553 3.05689,-2.63988 1.95593,-1.15018 4.37561,-1.78493 a 20.05128,20.05128 0 0 1 5.06203,-0.63598 q 4.47525,0 7.13973,1.31994 2.68909,1.29657 4.03486,3.86264 0.61015,1.15018 1.00256,2.56853 0.38996,1.41712 0.58678,3.08027 0.12178,1.12435 0.17099,2.37171 0.0738,1.22276 0.0738,2.5673 0,2.02973 0.36658,2.66572 0.39118,0.61138 1.05054,0.61138 0.56217,0 1.02717,-0.12302 0.48836,-0.14762 0.68518,-0.34198 l 2.66449,6.38197 q -0.36659,0.51297 -1.56474,1.07637 -1.19939,0.53757 -3.22789,0.53757 -1.44172,0 -2.83547,-0.44039 -1.36915,-0.43916 -2.32374,-1.24736 -0.92875,-0.83034 -1.07514,-1.98053 -0.31737,0.95459 -1.46755,1.83414 -1.14896,0.85618 -3.05567,1.39375 -1.90795,0.5388 -4.59704,0.53757 m 2.12692,-7.01672 q 0.87955,0 1.85751,-0.2694 a 11.686329,11.686329 0 0 0 1.81076,-0.63598 q 0.80698,-0.36535 1.12435,-0.63475 a 7.3808393,7.3808393 0 0 1 -0.14762,-0.80697 11.071259,11.071259 0 0 1 -0.048,-0.83158 q -0.44039,-0.19682 -1.61394,-0.34198 a 14.761679,14.761679 0 0 0 -2.22533,-0.17222 q -1.00133,0 -2.00513,0.14762 -0.97796,0.14762 -1.63731,0.53757 -0.66059,0.36781 -0.66059,1.09975 0,0.66058 0.41579,1.07637 0.41579,0.41579 1.19816,0.63598 0.80574,0.19559 1.93132,0.19559 m 18.31432,17.77553 q 0.24357,-4.20585 0.41579,-8.77828 0.16976,-4.57366 0.26817,-8.97264 0.12301,-4.42605 0.19682,-8.19273 a 647.05358,647.05358 0 0 0 0.12178,-10.1708 q 1.88212,-0.61138 4.30303,-0.85495 a 43.054896,43.054896 0 0 1 4.71882,-0.27063 q 0.0984,0.90661 0.17222,1.93255 0.0726,1.00257 0.0726,1.88212 0.39118,-0.58555 1.46632,-1.49093 1.07761,-0.90416 2.7875,-1.61395 1.71236,-0.70856 3.98565,-0.70856 5.06203,0 7.33533,3.20329 2.29913,3.17745 2.29913,8.87546 0,3.98565 -1.61394,6.84572 -1.58811,2.86131 -4.25506,4.37684 -2.66448,1.51676 -5.86777,1.51676 -1.39251,0 -2.78749,-0.3186 a 12.301399,12.301399 0 0 1 -2.42092,-0.85495 q -1.05054,-0.5142 -1.44295,-1.05177 0,0.63598 -0.0492,1.98053 a 281.70203,281.70203 0 0 1 -0.19436,6.38196 q -0.0738,1.7099 -0.14762,3.15408 -0.0738,1.46633 -0.14638,2.3225 -1.61272,0.31738 -3.39888,0.4896 a 67.657693,67.657693 0 0 1 -5.81856,0.31738 m 14.89084,-21.85959 q 1.19693,0 2.12691,-0.46376 a 3.5674057,3.5674057 0 0 0 1.46756,-1.34578 q 0.53757,-0.90415 0.53757,-2.15151 0,-1.76033 -0.80697,-2.68909 -0.80697,-0.95335 -2.8367,-0.95335 -1.27074,0 -2.24993,0.34197 a 5.6586435,5.6586435 0 0 0 -2.76289,1.88212 q 0.001,0.3186 -0.0246,0.80697 10e-4,0.46499 -0.0246,0.97796 10e-4,0.5142 -0.0246,0.95459 0.001,0.44039 -0.0234,0.68396 0.39118,0.41579 0.92875,0.88078 0.56218,0.44039 1.44296,0.75776 0.88078,0.31738 2.24992,0.31738 m 25.50203,23.59531 q -3.93645,0 -7.11513,-1.17355 -3.15531,-1.14772 -5.33019,-2.5673 0.36658,-1.00257 1.12435,-2.5673 0.75776,-1.56474 1.56473,-3.0323 0.8082,-1.46756 1.29657,-2.15151 0.97919,0.61261 2.39631,1.29656 1.44173,0.70856 3.08027,1.19816 a 11.071259,11.071259 0 0 0 3.2771,0.51297 q 1.49093,0 2.49349,-0.78237 1.02717,-0.78114 1.66315,-2.05433 a 10.825231,10.825231 0 0 0 0.92875,-2.7383 q 0.31738,-1.49092 0.36659,-2.88467 a 7.1348113,7.1348113 0 0 1 -1.61394,1.66192 8.6109792,8.6109792 0 0 1 -2.12692,1.12557 q -1.12558,0.41579 -2.24993,0.41579 -3.93644,0 -6.13716,-2.05433 -2.20071,-2.05434 -3.08027,-5.50119 -0.88078,-3.47268 -0.88078,-7.72651 0,-1.66315 0.0738,-3.49728 0.0738,-1.83414 0.17099,-3.83804 0.4896,-0.12301 1.46756,-0.17222 1.00257,-0.0492 2.17612,-0.0492 1.70989,0.001 3.34967,0.0984 1.66069,0.0984 2.2487,0.22142 -0.0984,0.46376 -0.26818,1.58811 -0.1476,1.10098 -0.26939,2.59191 -0.12301,1.46632 -0.12301,3.00769 0,1.27196 0.12301,2.47012 0.12301,1.17355 0.41578,2.12691 0.294,0.92999 0.80697,1.49216 0.53881,0.56094 1.31994,0.56217 1.58934,0 2.44552,-1.32117 0.87955,-1.34454 1.22276,-3.64244 0.34198,-2.2979 0.34198,-5.18381 0,-0.75777 -0.0246,-1.34454 0,-0.58678 -0.0246,-1.02717 a 8.6109792,8.6109792 0 0 0 -0.0738,-0.78237 17.221958,17.221958 0 0 0 -0.048,-0.5388 44.285036,44.285036 0 0 1 1.36915,-0.0738 q 0.68518,-0.048 1.34577,-0.048 2.76289,0 5.59837,0.61138 0.14761,3.22788 0.14761,7.26151 0,2.17735 -0.0492,4.54783 -0.0246,2.34834 -0.12302,4.79262 -0.0738,2.44552 -0.21896,4.93902 -0.22143,4.23168 -1.71236,7.43373 -1.46632,3.20205 -4.30303,4.98822 -2.8121,1.8083 -7.04255,1.8083"
       id="path3"
       style="fill:#ffffff;stroke-width:1.23014" />
    <path
       fill-rule="evenodd"
       d="m 176.40031,111.0156 a 3.4603835,3.4603835 0 1 1 0.005,6.91953 3.4603835,3.4603835 0 0 1 -0.005,-6.91953 m -4.41989,7.23076 c 0.25218,0.0123 0.5388,0.0652 0.8365,0.18821 0.59046,0.24603 0.94105,0.66305 1.12557,0.91276 0.33214,0.47484 0.61876,0.98043 0.91646,1.47863 0.32844,0.54988 0.59539,0.99642 0.85248,1.39375 0.36044,0.5511 0.61507,0.8611 0.8365,1.06038 0.31492,0.28293 0.76269,0.5511 2.36925,0.58678 2.6325,0.0271 2.59559,3.97704 -0.0369,3.9549 -2.02112,-0.048 -3.64737,-0.40349 -4.97715,-1.60164 a 7.3808393,7.3808393 0 0 1 -0.98165,-1.09114 l -1.23383,1.53768 1.16986,1.1551 2.00513,1.97683 1.23875,1.22399 c 0.1796,0.17714 0.32353,0.3875 0.4244,0.61999 l 2.05187,4.72989 c 1.04562,2.41723 -2.58206,3.98934 -3.62891,1.57212 l -1.89688,-4.37684 -3.00769,-2.9671 -0.60277,2.18227 -0.68519,2.30775 q -0.0738,0.25586 -0.21527,0.47975 l -1.62994,2.6325 c -1.39005,2.23885 -4.75203,0.15377 -3.36197,-2.08755 l 1.49216,-2.40246 1.01364,-3.41979 c 0.47975,-1.89565 0.31737,-1.40236 0.60276,-2.47258 -0.11932,-0.20667 -1.36545,-2.53409 0.38873,-5.93051 a 9.4720771,9.4720771 0 0 1 1.40482,-2.03219 c 0.44162,-0.47975 1.12927,-1.11081 1.96822,-1.35069 0.66797,-0.20543 1.16371,-0.2817 1.55982,-0.25956 z"
       id="path4"
       style="fill:#ffffff;stroke-width:1.23014" />
    <path
       id="path8"
       style="fill:#ffffff;stroke-width:0.20933"
       d="m 189.76246,104.8769 a 3.1653988,3.1653988 0 0 0 -3.1653,3.1653 3.5514966,3.5514966 0 0 0 -3.55166,3.55167 3.5514966,3.5514966 0 0 0 3.55166,3.55125 3.5514966,3.5514966 0 0 0 1.64479,-0.41335 3.5514966,3.5514966 0 0 0 3.3595,2.4212 3.5514966,3.5514966 0 0 0 2.94452,-1.57406 3.5514966,3.5514966 0 0 0 1.93344,0.57401 3.5514966,3.5514966 0 0 0 3.55166,-3.55124 3.5514966,3.5514966 0 0 0 -2.9854,-3.50547 3.5514966,3.5514966 0 0 0 -3.42002,-2.59782 3.5514966,3.5514966 0 0 0 -1.02129,0.15169 3.1653988,3.1653988 0 0 0 -2.8419,-1.77318 z m 1.29931,3.59214 h 0.95302 a 0.43953553,0.43953553 0 0 1 0.43951,0.43952 v 1.05931 a 0.13094243,0.13094243 0 0 0 0.13084,0.13084 h 1.05932 a 0.43953553,0.43953553 0 0 1 0.43952,0.43951 v 0.95303 a 0.43953553,0.43953553 0 0 1 -0.43952,0.43951 h -1.05932 a 0.13094243,0.13094243 0 0 0 -0.13084,0.13082 v 1.05974 a 0.43953553,0.43953553 0 0 1 -0.43951,0.43951 h -0.95302 a 0.43953553,0.43953553 0 0 1 -0.43951,-0.43951 v -1.05974 a 0.13094243,0.13094243 0 0 0 -0.13083,-0.13082 h -1.05974 a 0.43953553,0.43953553 0 0 1 -0.43951,-0.43951 v -0.95303 a 0.43953553,0.43953553 0 0 1 0.43951,-0.43951 h 1.05974 a 0.13094243,0.13094243 0 0 0 0.13083,-0.13084 v -1.05931 a 0.43953553,0.43953553 0 0 1 0.43951,-0.43952 z"
       inkscape:export-filename="../Documents/retailtherapy/src/icons/rt.svg"
       inkscape:export-xdpi="96"
       inkscape:export-ydpi="96" />
  </g>
</svg>
