<?xml version="1.0" encoding="UTF-8"?>
<svg width="708.36" height="318.01" version="1.1" viewBox="0 0 187.42 84.139" xmlns="http://www.w3.org/2000/svg">
<g transform="translate(-161.51,-104.88)">
<title>Retail Therapy</title>
<path d="m212.55 143.36q-0.14761-2.7641-0.36658-6.7485-0.22019-3.9856-0.46376-8.5089l-0.44039-9.0231a3081.5 3081.5 0 0 0-0.36658-8.1669 78.729 78.729 0 0 1 2.6645-0.1956q1.6632-0.12301 3.5699-0.22019 1.9313-0.12178 3.7654-0.19559 1.8341-0.0738 3.2033-0.0738 1.9313 0 3.9118 0.36781a12.055 12.055 0 0 1 3.6929 1.2461 7.0733 7.0733 0 0 1 2.7137 2.5685q1.0272 1.6607 1.0272 4.303 0 2.5181-1.3445 4.7926-1.3212 2.2487-3.2525 3.3005 0.56217 1.101 1.2228 2.5919 0.68395 1.4663 1.3445 3.1049 0.68396 1.6139 1.2966 3.1787 0.63475 1.5647 1.1243 2.8613 0.4896 1.2707 0.73317 2.0543-0.90539 0.53757-2.3963 1.0259-1.4909 0.465-3.0557 0.83158a68.888 68.888 0 0 1-4.0349 0.83157 60.277 60.277 0 0 0-0.51297-2.1773q-0.36904-1.4651-0.85618-3.2759a548.64 548.64 0 0 0-1.8821-6.8703 59.047 59.047 0 0 0-0.63598-2.1035 12.301 12.301 0 0 0-0.56218 0.0984q-0.22142 0.0492-0.46499 0.0738-0.22143 0-0.56217 0.0246 0.0972 0.68273 0.22019 1.9805 0.12178 1.2707 0.24357 2.8847 0.12301 1.6152 0.22142 3.3017 0.12179 1.6607 0.16976 3.1295 0.0738 1.4417 0.0738 2.3717-1.2215 0.2694-2.9585 0.39118-1.7124 0.14762-3.5699 0.1956-1.8341 0.0492-3.4714 0.0492zm8.1927-21.493q0.56094 0 1.1723-0.0246a29.523 29.523 0 0 0 1.5647-0.17099 7.7499 7.7499 0 0 0 1.8575-0.46376q0.8082-0.31984 1.224-0.85618a2.1158 2.1158 0 0 0 0.44039-1.3445q0-0.88078-0.465-1.2474-0.46499-0.39119-1.3445-0.4896a19.682 19.682 0 0 0-2.9585-0.0738 11.071 11.071 0 0 0-0.75899 0.0738 8.611 8.611 0 0 0-0.68396 0.0738q-0.294 0.0246-0.48959 0.0492 0.0492 0.41579 0.0984 0.87955l0.0984 0.95336q0.0738 0.4896 0.0972 0.97919 0.0492 0.46376 0.0738 0.90415 0.048 0.41456 0.0738 0.75777m40.881 17.238q-0.78236 0.92875-1.8821 1.6878a11.071 11.071 0 0 1-2.5193 1.2953q-1.4171 0.51299-3.2266 0.78239-1.8108 0.29523-4.0103 0.294-3.7162 0-6.6514-1.3458a10.456 10.456 0 0 1-4.5724-4.0828q-1.6607-2.7137-1.6619-6.8224 0-4.2538 1.6619-7.4325 1.6878-3.1787 4.7434-4.939 3.0557-1.7603 7.2136-1.7603 5.233 0 8.3133 2.7629 3.0815 2.7371 3.0815 7.7745 0 0.97796-0.0738 1.737-0.0738 0.73316-0.2694 1.6139a51.666 51.666 0 0 0-1.7357-0.0492 779.91 779.91 0 0 0-2.9585-0.0492q-1.614-0.0246-2.9585-0.0492a120.55 120.55 0 0 0-1.7603-0.0246q-1.8821 0-3.4973 0.17222a28.293 28.293 0 0 0-2.4935 0.31738q0 0.29523 0.0246 0.61138 0.0492 0.29523 0.14639 0.56217a2.7063 2.7063 0 0 0 0.85617 1.1502q0.58678 0.46376 1.4171 0.70856 0.8328 0.22143 1.7849 0.2202 0.68642 0 1.3458-0.0984a6.5197 6.5197 0 0 0 1.3199-0.34198 7.1348 7.1348 0 0 0 1.3446-0.70856 10.21 10.21 0 0 0 1.4184-1.1256q0.14761 0.12301 0.85617 0.85618 0.73317 0.73439 1.6619 1.8095 0.92999 1.0764 1.7849 2.2733 0.85617 1.1748 1.2966 2.202zm-14.842-13.546a20.912 20.912 0 0 1 1.7837-0.21896q1.1022-0.0984 2.5931-0.0984a47.975 47.975 0 0 1 2.6891 0.0738q0-0.31984-0.12301-0.7344a2.3373 2.3373 0 0 0-0.65936-1.0751 3.1984 3.1984 0 0 0-1.149-0.759 3.8749 3.8749 0 0 0-1.5401-0.29277q-1.1982 0-1.9805 0.56218a3.6166 3.6166 0 0 0-1.1736 1.272q-0.36782 0.73316-0.44039 1.2707m39.758 14.915q-0.54003 0.71103-1.6878 1.5647-1.1256 0.83035-2.8613 1.4184-1.7345 0.61261-4.0595 0.61138-3.1049 0-5.1826-1.2707a7.9959 7.9959 0 0 1-3.0803-3.4235q-1.0272-2.1515-1.0272-4.768-1e-3 -1.443 0.0246-2.8859a815.58 815.58 0 0 1 0.19559-5.2564q0.0738-1.1736 0.12301-2.0543 0.0713-0.87955 0.0972-1.4184-1.5906 0.17222-3.1787 0.39119-1.566 0.19682-2.2745 0.34321a36.904 36.904 0 0 1-0.46499-3.5453 55.356 55.356 0 0 1-0.2202-3.0569q-0.0738-1.2953-0.0738-1.5647 1.4442-0.17222 2.9105-0.2694 1.4909-0.12179 3.2771-0.1956-0.0492-0.34197-0.12301-1.4663a121.78 121.78 0 0 0-0.0984-1.9805q-0.0246-0.83034-0.0972-1.6878-0.0738-0.87955-0.12301-1.3445l8.9739-0.90415q-0.0246 0.24356-0.0492 1.1243v2.1023q0 0.75654 0.0246 1.7099 0.0258 0.95459 0.0738 2.0297 0.85617-0.0492 1.9313-0.0984 1.101-0.0713 1.7124-0.0972 0.95336-0.0738 1.6139-0.0984 0.68396-0.0246 1.0998-0.0246h0.61138q0.19559 1.4934 0.2448 3.6683 0.0738 2.1774 0.0738 3.9118-0.24479 0-1.5414 0.0738t-2.5181 0.14762q-0.83034 0.0492-1.8821 0.14638-1.0284 0.0738-1.5168 0.12302-0.0246 0.43916-0.0738 1.0997-0.0246 0.66059-0.0492 1.4909l-0.048 1.7357-0.0492 1.8341v1.7603q0 1.6632 0.12302 2.8613 0.14761 1.1994 0.58677 1.8575 0.44039 0.63599 1.3692 0.63599 0.58677 0 1.0518-0.24357 0.46499-0.24603 0.83157-0.58678a8.611 8.611 0 0 0 0.65936-0.73439q0.39118 0.58677 1.0764 1.5168l1.4184 1.9313q0.75777 1.0013 1.3445 1.8083 0.61015 0.78359 0.83158 1.0764zm11.54 2.6657q-3.0077 0-5.5012-0.80697-2.4947-0.83158-3.9856-2.6903-1.4909-1.8588-1.4897-4.939 0-3.1528 1.7837-4.987 1.7862-1.8587 4.6216-2.6411a21.65 21.65 0 0 1 5.9662-0.80697q1.0284 0 1.9559 0.17098 0.95336 0.14762 1.6878 0.41579 0.73317 0.24357 1.1244 0.53757 0-0.5142-0.2448-1.149a2.5833 2.5833 0 0 0-0.68395-1.0272 5.7817 5.7817 0 0 0-1.5155-0.97797q-0.90415-0.41578-2.5673-0.41578-1.5906 0-2.9351 0.75776-1.3433 0.759-2.0543 1.6386l-7.3095-4.6942q1.1244-1.5155 3.0557-2.6411 1.9559-1.149 4.3768-1.7849a20.051 20.051 0 0 1 5.062-0.63598q4.4752 0 7.1397 1.3212 2.6878 1.2953 4.0348 3.8626 0.60892 1.1502 1.0013 2.5673 0.39118 1.4196 0.58677 3.0815 0.12302 1.1244 0.17222 2.3717 0.0738 1.2215 0.0726 2.5673 0 2.0297 0.36658 2.6645 0.39119 0.61261 1.0518 0.61138 0.56218 0 1.0272-0.12302 0.48837-0.14515 0.68396-0.34075l2.6657 6.3807q-0.36781 0.5142-1.5647 1.0764-1.1994 0.5388-3.2279 0.53757-1.4417 0-2.8367-0.44039-1.3691-0.43916-2.3225-1.2461-0.92876-0.83034-1.0764-1.9805-0.31738 0.95335-1.4663 1.8329-1.149 0.85617-3.0569 1.3938-1.9079 0.53757-4.597 0.5388m2.1281-7.0179q0.87955 0 1.8575-0.26817a11.686 11.686 0 0 0 1.8095-0.63599q0.80697-0.36658 1.1244-0.63598a7.3808 7.3808 0 0 1-0.14639-0.80697 11.071 11.071 0 0 1-0.0492-0.83158q-0.43916-0.19559-1.6127-0.34197a14.762 14.762 0 0 0-2.2266-0.17222q-1.0013 0-2.0039 0.14761-0.97796 0.14762-1.6386 0.53757-0.65935 0.36782-0.65935 1.101 0 0.66181 0.41456 1.0751 0.41578 0.41702 1.1982 0.63598 0.8082 0.19683 1.9313 0.19683m28.755 6.5776q-0.44162 0.0246-1.9067 0.12301a45.515 45.515 0 0 1-3.0815 0.0972q-1.1256 0-2.3237-0.0738a28.293 28.293 0 0 1-2.3471-0.19559q0.0984-0.63475 0.2694-2.5673 0.17099-1.9313 0.34198-4.5478 0.19683-2.6386 0.36658-5.452 0.17222-2.8121 0.26941-5.2822 0.0984-2.4689 0.0984-3.9856 0.63475-0.0492 1.8083-0.0984 1.1982-0.048 2.5685-0.0972a164.84 164.84 0 0 1 2.6153-0.0738q1.2474-0.0492 1.9805-0.0492 0.17222 0.8328 0.2694 2.7395 0.0984 1.8821 0.0984 4.2058 0 2.202-0.0738 4.5724-0.0738 2.3471-0.22142 4.5232a62.737 62.737 0 0 1-0.31738 3.7901q-0.19559 1.6385-0.41456 2.3717m-3.5699-24.915q-2.5673 0-4.4014-1.4676-1.8083-1.4663-1.8095-3.961 0-1.6619 0.85618-2.8613a5.5971 5.5971 0 0 1 2.1995-1.8329 6.5197 6.5197 0 0 1 2.8613-0.66182q2.3963 0 4.0103 1.5155 1.6385 1.5168 1.6385 3.9364 0 2.2745-1.5647 3.8147-1.5414 1.5168-3.7901 1.5168m23.375 24.133q-0.7836 0.66058-2.9339 1.272-2.1527 0.63476-4.6216 0.63476-3.1295 0-4.7926-1.3446-1.6632-1.3445-2.2745-3.838-0.61015-2.5181-0.61015-5.9416 0-3.0077 0.0492-5.7952 0.048-2.8121 0.12178-5.404 0.0984-2.5919 0.19559-4.9636 0.12179-2.3963 0.2448-4.5724 0.12179-2.1773 0.24357-4.1333 2.1774-0.14515 3.9856-0.14515a52.896 52.896 0 0 1 4.8418 0.21896q-0.14761 2.3963-0.3186 5.0866a638.44 638.44 0 0 0-0.31738 5.3548q-0.14762 2.6645-0.2694 5.0608a387.49 387.49 0 0 0-0.19559 4.2304q-0.0738 1.8095-0.0738 2.7629 0 1.3938 0.0984 2.5181 0.12301 1.1244 0.4896 1.7849 0.39118 0.66059 1.149 0.66059 0.75776 0 1.2474-0.29401 0.51297-0.29277 0.83157-0.78237 0.16976 0.36905 0.58678 1.4676 0.43916 1.0998 0.92876 2.4209 0.51296 1.3199 0.90538 2.3963 0.39118 1.0518 0.48836 1.3445m-186.67 10.566q-0.14762-0.63721-0.2694-1.8587-0.0984-1.2474-0.17099-2.6165a292.77 292.77 0 0 1-0.12302-2.4455q-0.0234-1.0751-0.0234-1.4171 2.7125-0.22142 6.1618-0.36781 3.4469-0.17099 6.9934-0.17099 2.7383 0 5.3548 0.12301 2.6165 0.12179 4.768 0.44039 0 2.5907-0.19682 4.7668-0.19436 2.1527-0.46377 3.1787h-2.8367q-0.87955-0.0246-1.7345-0.0246-0.83157-0.0246-1.4442-0.048 0.0492 0.90538 0.12301 2.5919 0.0984 1.6865 0.1956 3.838 0.12178 2.1281 0.24479 4.4752 0.14762 2.3225 0.26817 4.5478 0.12302 2.2253 0.22143 4.0595 0.0972 1.8083 0.16976 2.9585 0.0726 1.1502 0.0738 1.2953-1.2474 0.19682-3.2033 0.34198a77.499 77.499 0 0 1-3.8626 0.24603 63.967 63.967 0 0 1-3.1307 0.0972 268.17 268.17 0 0 1-0.26817-7.3353l-0.0984-4.4014a426.86 426.86 0 0 1-0.0984-8.5089v-2.1528q0.0246-1.0272 0.0492-1.8575-0.75654 0.0738-1.5647 0.12302-0.80697 0.0246-1.6619 0.0738l-1.7124 0.048zm34.647 23.791q-0.68396 0.12178-1.9313 0.19559-1.2215 0.0738-2.5673 0.0738-1.5881 0-2.9339-0.12302-1.3458-0.0984-1.9805-0.34198 0.17099-1.3212 0.31737-3.4727 0.17222-2.1761 0.2694-4.9144 0.12302-2.7629 0.12302-5.794 0-3.4001-0.12302-6.9454a281.7 281.7 0 0 0-0.3186-6.8949 537.57 537.57 0 0 0-0.34198-6.0892q0.19682-0.0738 1.3199-0.24356a131.62 131.62 0 0 1 5.5024-0.70856q1.3692-0.14762 2.0297-0.14762 0.39119 1.8329 0.70856 4.2304 0.31738 2.3975 0.53758 5.281 0.24602 2.8601 0.3432 6.163 0.83035-0.83157 2.0297-1.443a11.071 11.071 0 0 1 2.5661-0.92999 11.317 11.317 0 0 1 2.7149-0.34198q3.1541 0 4.768 1.0998 1.6361 1.0764 2.2241 3.2279 0.58678 2.1269 0.58678 5.3056 0 2.0297-0.17099 4.3289a73.808 73.808 0 0 1-0.41579 4.4248 47.975 47.975 0 0 1-0.56217 3.7655q-1.0518 0.17222-2.1515 0.2694-1.0997 0.0984-2.2007 0.0984-1.1982 0-2.3717-0.12301a19.682 19.682 0 0 1-2.1761-0.29277q0.17222-1.053 0.36659-2.5439 0.19682-1.5155 0.36658-3.0803 0.19682-1.5893 0.294-2.9585 0.12302-1.3692 0.12302-2.1774 0-1.0985-0.27064-1.8083-0.24233-0.70979-0.73316-1.0518-0.46376-0.34198-1.149-0.34198a3.6904 3.6904 0 0 0-1.1244 0.17099q-0.5388 0.17222-1.0272 0.46499a6.1507 6.1507 0 0 0-0.92876 0.68396 7.3808 7.3808 0 0 0-0.80697 0.83157q0 2.3963-0.14762 4.7188a70.118 70.118 0 0 1-0.34198 4.255 45.515 45.515 0 0 1-0.41578 3.1787m43.182-3.7901q-0.78237 0.92876-1.8821 1.6865a11.071 11.071 0 0 1-2.5193 1.2966q-1.4184 0.51297-3.2279 0.78237-1.8083 0.29278-4.0103 0.29278-3.7162 0-6.6501-1.3446a10.456 10.456 0 0 1-4.5724-4.0841q-1.6632-2.7137-1.6632-6.8211 0-4.255 1.6632-7.4337 1.6878-3.1774 4.7434-4.939 3.0557-1.7591 7.2135-1.7591 5.2318 0 8.3133 2.7617 3.0815 2.7383 3.0803 7.7757 0 0.97797-0.0738 1.7357-0.0738 0.73439-0.26817 1.6139a51.666 51.666 0 0 0-1.7357-0.0492q-1.3212-0.0246-2.9585-0.0492-1.614-0.0246-2.9597-0.048a120.55 120.55 0 0 0-1.7591-0.0246q-1.8833 0-3.4973 0.17221a28.293 28.293 0 0 0-2.4935 0.31738q-1e-3 0.29277 0.0246 0.61138 0.0492 0.29277 0.14639 0.56217a2.7063 2.7063 0 0 0 0.85494 1.149q0.58678 0.46499 1.4184 0.70979 0.83035 0.22019 1.7849 0.22019 0.68519 0 1.3445-0.0984a6.5197 6.5197 0 0 0 1.3212-0.34198 7.1348 7.1348 0 0 0 1.3445-0.70979 10.21 10.21 0 0 0 1.4184-1.1244q0.14762 0.12179 0.85618 0.85618 0.73317 0.73193 1.6619 1.8083 0.92999 1.0776 1.7849 2.2745 0.85618 1.1736 1.2966 2.2007m-14.842-13.546a20.912 20.912 0 0 1 1.7837-0.22019q1.1022-0.0984 2.5919-0.0984a47.975 47.975 0 0 1 2.6903 0.0738q0-0.31738-0.12302-0.73317a2.3373 2.3373 0 0 0-0.65935-1.0764 3.1984 3.1984 0 0 0-1.149-0.75777 3.8749 3.8749 0 0 0-1.5414-0.294q-1.1982 0-1.9805 0.5634a3.6166 3.6166 0 0 0-1.1736 1.2707q-0.36658 0.73316-0.43916 1.272m26.626-4.8418q0.44039-1.0259 1.443-2.0051 1.0026-1.0026 2.4701-1.6373 1.4909-0.66059 3.3005-0.66059 1.0998 0 2.1761 0.2448 1.0764 0.24357 1.5155 0.58678l-1.8821 9.6824a20.912 20.912 0 0 0-1.3199-0.44039 5.4126 5.4126 0 0 0-1.737-0.26817q-0.92875 0-1.7591 0.29277a5.2896 5.2896 0 0 0-1.5168 0.80697q-0.68396 0.53881-1.3212 1.3199 0.19559 1.2486 0.46499 3.2525 0.294 2.0051 0.56217 4.1579 0.26941 2.149 0.44039 3.9118 0.1956 1.7345 0.1956 2.5181-2.1774 0.294-4.9144 0.39118-2.7371 0.0972-5.3548 0.0984 0-1.9067-0.12302-4.5737a206.66 206.66 0 0 0-0.75776-11.517q-0.24357-2.8601-0.53757-5.1592-0.29524-2.3213-0.58678-3.6178a44.285 44.285 0 0 1 3.2759-0.759 71.348 71.348 0 0 1 3.1787-0.58678q1.395-0.21896 1.7603-0.24356 0.29523 0.61014 0.66058 1.9559 0.36658 1.3199 0.36658 2.2487m22.936 22.422q-3.0065 0-5.5024-0.80697-2.4935-0.83034-3.9856-2.6891-1.4909-1.8575-1.4909-4.939 0-3.1541 1.7849-4.9882 1.7849-1.8575 4.6216-2.6411a21.65 21.65 0 0 1 5.9662-0.80698q1.0259 0 1.9559 0.17222 0.95335 0.14762 1.6865 0.41456 0.73439 0.24603 1.1256 0.5388 0-0.5142-0.24603-1.149a2.5833 2.5833 0 0 0-0.68396-1.0272 5.7817 5.7817 0 0 0-1.5155-0.97796q-0.90416-0.41701-2.5673-0.41578-1.5881 0-2.9339 0.75776-1.347 0.75777-2.0543 1.6386l-7.3107-4.6954q1.1256-1.5155 3.0569-2.6399 1.9559-1.1502 4.3756-1.7849a20.051 20.051 0 0 1 5.062-0.63598q4.4752 0 7.1397 1.3199 2.6891 1.2966 4.0349 3.8626 0.61015 1.1502 1.0026 2.5685 0.38996 1.4171 0.58678 3.0803 0.12178 1.1244 0.17099 2.3717 0.0738 1.2228 0.0738 2.5673 0 2.0297 0.36658 2.6657 0.39118 0.61138 1.0505 0.61138 0.56217 0 1.0272-0.12302 0.48836-0.14762 0.68518-0.34198l2.6645 6.382q-0.36659 0.51297-1.5647 1.0764-1.1994 0.53757-3.2279 0.53757-1.4417 0-2.8355-0.44039-1.3692-0.43916-2.3237-1.2474-0.92875-0.83034-1.0751-1.9805-0.31737 0.95459-1.4676 1.8341-1.149 0.85618-3.0557 1.3938-1.908 0.5388-4.597 0.53757m2.1269-7.0167q0.87955 0 1.8575-0.2694a11.686 11.686 0 0 0 1.8108-0.63598q0.80698-0.36535 1.1244-0.63475a7.3808 7.3808 0 0 1-0.14762-0.80697 11.071 11.071 0 0 1-0.048-0.83158q-0.44039-0.19682-1.6139-0.34198a14.762 14.762 0 0 0-2.2253-0.17222q-1.0013 0-2.0051 0.14762-0.97796 0.14762-1.6373 0.53757-0.66059 0.36781-0.66059 1.0998 0 0.66058 0.41579 1.0764t1.1982 0.63598q0.80574 0.19559 1.9313 0.19559m18.314 17.776q0.24357-4.2058 0.41579-8.7783 0.16976-4.5737 0.26817-8.9726 0.12301-4.426 0.19682-8.1927a647.05 647.05 0 0 0 0.12178-10.171q1.8821-0.61138 4.303-0.85495a43.055 43.055 0 0 1 4.7188-0.27063q0.0984 0.90661 0.17222 1.9326 0.0726 1.0026 0.0726 1.8821 0.39118-0.58555 1.4663-1.4909 1.0776-0.90416 2.7875-1.614 1.7124-0.70856 3.9856-0.70856 5.062 0 7.3353 3.2033 2.2991 3.1774 2.2991 8.8755 0 3.9856-1.6139 6.8457-1.5881 2.8613-4.2551 4.3768-2.6645 1.5168-5.8678 1.5168-1.3925 0-2.7875-0.3186a12.301 12.301 0 0 1-2.4209-0.85495q-1.0505-0.5142-1.443-1.0518 0 0.63598-0.0492 1.9805a281.7 281.7 0 0 1-0.19436 6.382q-0.0738 1.7099-0.14762 3.1541-0.0738 1.4663-0.14638 2.3225-1.6127 0.31738-3.3989 0.4896a67.658 67.658 0 0 1-5.8186 0.31738m14.891-21.86q1.1969 0 2.1269-0.46376a3.5674 3.5674 0 0 0 1.4676-1.3458q0.53757-0.90415 0.53757-2.1515 0-1.7603-0.80697-2.6891-0.80697-0.95335-2.8367-0.95335-1.2707 0-2.2499 0.34197a5.6586 5.6586 0 0 0-2.7629 1.8821q1e-3 0.3186-0.0246 0.80697 1e-3 0.46499-0.0246 0.97796 1e-3 0.5142-0.0246 0.95459 1e-3 0.44039-0.0234 0.68396 0.39118 0.41579 0.92875 0.88078 0.56218 0.44039 1.443 0.75776 0.88078 0.31738 2.2499 0.31738m25.502 23.595q-3.9364 0-7.1151-1.1736-3.1553-1.1477-5.3302-2.5673 0.36658-1.0026 1.1244-2.5673 0.75776-1.5647 1.5647-3.0323 0.8082-1.4676 1.2966-2.1515 0.97919 0.61261 2.3963 1.2966 1.4417 0.70856 3.0803 1.1982a11.071 11.071 0 0 0 3.2771 0.51297q1.4909 0 2.4935-0.78237 1.0272-0.78114 1.6632-2.0543a10.825 10.825 0 0 0 0.92875-2.7383q0.31738-1.4909 0.36659-2.8847a7.1348 7.1348 0 0 1-1.6139 1.6619 8.611 8.611 0 0 1-2.1269 1.1256q-1.1256 0.41579-2.2499 0.41579-3.9364 0-6.1372-2.0543-2.2007-2.0543-3.0803-5.5012-0.88078-3.4727-0.88078-7.7265 0-1.6632 0.0738-3.4973t0.17099-3.838q0.4896-0.12301 1.4676-0.17222 1.0026-0.0492 2.1761-0.0492 1.7099 1e-3 3.3497 0.0984 1.6607 0.0984 2.2487 0.22142-0.0984 0.46376-0.26818 1.5881-0.1476 1.101-0.26939 2.5919-0.12301 1.4663-0.12301 3.0077 0 1.272 0.12301 2.4701 0.12301 1.1736 0.41578 2.1269 0.294 0.92999 0.80697 1.4922 0.53881 0.56094 1.3199 0.56217 1.5893 0 2.4455-1.3212 0.87955-1.3445 1.2228-3.6424 0.34198-2.2979 0.34198-5.1838 0-0.75777-0.0246-1.3445 0-0.58678-0.0246-1.0272a8.611 8.611 0 0 0-0.0738-0.78237 17.222 17.222 0 0 0-0.048-0.5388 44.285 44.285 0 0 1 1.3692-0.0738q0.68518-0.048 1.3458-0.048 2.7629 0 5.5984 0.61138 0.14761 3.2279 0.14761 7.2615 0 2.1774-0.0492 4.5478-0.0246 2.3483-0.12302 4.7926-0.0738 2.4455-0.21896 4.939-0.22143 4.2317-1.7124 7.4337-1.4663 3.202-4.303 4.9882-2.8121 1.8083-7.0426 1.8083" stroke-width="1.2301"/>
<path d="m178.27 107.01c-5.1686 0.1014-5.1631 7.8073 6e-3 7.9013 5.3679 0.0976 5.3621-8.0066-6e-3 -7.9013zm-9.4004 5.3718c-0.21832-1e-3 -0.43508 0.0919-0.58653 0.27336l-0.70486 0.84491c-1.8494-2.009-5.1728 0.59166-3.4354 2.9228 0.8634 1.1222 1.7352 2.0247 2.7404 2.6546 0.39007-0.68935 0.97172-1.4548 1.6247-2.1694 0.47207-0.5166 0.97109-1.0008 1.4748-1.387-0.0263-5e-3 -0.0573-8e-3 -0.0822-0.0129-0.33264-0.0697-0.70398-0.20684-1.2826-0.78704l0.8785-1.0532c0.26924-0.32261 0.22648-0.79886-0.0961-1.0682l-0.0491-0.0408c-0.14114-0.11779-0.31182-0.17574-0.48162-0.17674zm4.3532 2.8851-1e-3 2e-3c-0.44065-0.0246-0.99272 0.06-1.726 0.28112-0.6314 0.23473-1.5878 1.0019-2.4024 1.8934-0.65743 0.71945-1.242 1.528-1.5839 2.1539-0.0851 0.17184-0.16615 0.34223-0.23823 0.50901-1e-3 3e-3 -3e-3 6e-3 -4e-3 9e-3a0.39687 0.39687 0 0 1-3e-3 5e-3c-1.5061 3.4987-0.24734 5.8581-0.11937 6.0797-0.32588 1.2221-0.1405 0.659-0.68833 2.8236l-1.1576 3.9047-1.7038 2.7435c-1.5872 2.5594 2.2518 4.9403 3.839 2.3838l1.8609-3.006c0.10769-0.17044 0.18978-0.353 0.24598-0.54777l0.78238-2.6355 0.68833-2.4918 3.4344 3.3884 2.1663 4.9976c1.1953 2.7602 5.3379 0.96494 4.1439-1.7952l-2.343-5.4012c-0.11519-0.26548-0.27964-0.50568-0.48473-0.70796l-1.4149-1.3973-2.2893-2.2572-1.3369-1.3193 1.4092-1.756c0.33132 0.4515 0.70721 0.86887 1.1214 1.2459 1.5185 1.3681 3.3755 1.774 5.6834 1.8288 3.006 0.0252 3.0484-4.485 0.0424-4.516-1.8345-0.0407-2.3462-0.34664-2.7058-0.66972-0.25285-0.22758-0.54339-0.582-0.95498-1.2113-0.29357-0.45377-0.59853-0.96375-0.97358-1.5916-0.33994-0.56886-0.66723-1.146-1.0464-1.6883-0.21074-0.28515-0.61094-0.76138-1.2852-1.0423-0.33995-0.14052-0.66754-0.20097-0.9555-0.21497z"/>
<path d="m199.27 118.7c-0.36884 4.2e-4 -0.68423 0.27985-0.72192 0.65474l-0.1757 1.7451c-0.012 0.11901-0.11825 0.2062-0.2372 0.1943l-1.7456-0.1757c-0.39989-0.0401-0.75665 0.25177-0.79685 0.65164l-0.15762 1.5699c-0.0402 0.39988 0.25126 0.75665 0.65113 0.79685l1.7461 0.17518c0.11898 0.0121 0.20569 0.11823 0.19379 0.2372l-0.1757 1.7461c-0.0402 0.39989 0.25176 0.75665 0.65164 0.79685l1.5699 0.15761c0.39989 0.0401 0.75665-0.25174 0.79685-0.65164l0.17519-1.7456c0.0121-0.11897 0.11823-0.20569 0.23719-0.19379l1.7451 0.17518c0.39989 0.0401 0.75665-0.25124 0.79685-0.65112l0.15813-1.5704c0.0402-0.39989-0.25175-0.75665-0.65164-0.79685l-1.7451-0.17519c-0.11899-0.012-0.20569-0.11823-0.19379-0.23719l0.17519-1.7451c0.0402-0.39989-0.25124-0.75665-0.65112-0.79685l-1.5704-0.15762c-0.025-2e-3 -0.0498-4e-3 -0.0744-4e-3zm-17.804 4.2948a1.1419 1.1419 0 0 0-0.95601 0.83302 1.1419 1.1419 0 0 0 0.80046 1.4025l3.1486 0.85731 1.7064 4.8855-1.4351 4.6907a1.142 1.142 0 0 0 1.0919 1.4764h1.4299c3e-3 1.1763 0.95772 2.1287 2.1348 2.1286 1.1768-1.3e-4 2.131-0.95247 2.1342-2.1286h6.613c3e-3 1.1763 0.95771 2.1287 2.1348 2.1286 1.1768-1.3e-4 2.1315-0.95247 2.1348-2.1286h0.95188a1.1419 1.1419 0 0 0 1.1426-1.1426 1.1419 1.1419 0 0 0-1.1426-1.1426h-15.988l0.84646-2.7636h15.048a1.142 1.142 0 0 0 1.0511-0.69918l2.668-6.3298a1.1419 1.1419 0 0 0-0.60978-1.4945 1.1419 1.1419 0 0 0-1.496 0.60772l-2.3709 5.6306h-14.326l-1.7596-5.039a1.142 1.142 0 0 0-0.77927-0.72657l-3.7284-1.0154a1.1419 1.1419 0 0 0-0.44442-0.0305zm9.9808 0.40979c-0.0333-2.2e-4 -0.0673 3e-3 -0.10128 9e-3l-1.0676 0.21135c-0.27191 0.0538-0.44861 0.31772-0.39481 0.58963l0.23462 1.1865c0.0159 0.081-0.037 0.1596-0.11783 0.1757l-1.187 0.23461c-0.27191 0.0538-0.44861 0.31772-0.39481 0.58963l0.21084 1.0676c0.0538 0.27191 0.31772 0.44861 0.58963 0.39481l1.187-0.23461c0.0808-0.0159 0.1596 0.037 0.1757 0.11782l0.23461 1.187c0.0538 0.27191 0.31772 0.44861 0.58963 0.39481l1.0676-0.21084c0.27191-0.0538 0.44913-0.31771 0.39533-0.58962l-0.23461-1.187c-0.0159-0.081 0.0365-0.1596 0.1173-0.1757l1.1865-0.23461c0.27191-0.0538 0.44913-0.31772 0.39533-0.58963l-0.21136-1.0676c-0.0538-0.27191-0.31772-0.44861-0.58963-0.39481l-1.1865 0.23461c-0.0811 0.0159-0.1596-0.037-0.1757-0.11782l-0.23461-1.1865c-0.047-0.23791-0.25491-0.40309-0.48834-0.40463z"/>
</g>
</svg>
