<?xml version="1.0" encoding="UTF-8" standalone="no"?>
<!-- Created with Inkscape (http://www.inkscape.org/) -->

<svg
   width="152.42293mm"
   height="66.66864mm"
   viewBox="0 0 152.42293 66.66864"
   version="1.1"
   id="svg1"
   inkscape:version="1.4 (e7c3feb100, 2024-10-09)"
   sodipodi:docname="retail_therapy_branding.svg"
   xmlns:inkscape="http://www.inkscape.org/namespaces/inkscape"
   xmlns:sodipodi="http://sodipodi.sourceforge.net/DTD/sodipodi-0.dtd"
   xmlns:xlink="http://www.w3.org/1999/xlink"
   xmlns="http://www.w3.org/2000/svg"
   xmlns:svg="http://www.w3.org/2000/svg">
  <sodipodi:namedview
     id="namedview1"
     pagecolor="#ffffff"
     bordercolor="#000000"
     borderopacity="0.25"
     inkscape:showpageshadow="2"
     inkscape:pageopacity="0.0"
     inkscape:pagecheckerboard="0"
     inkscape:deskcolor="#d1d1d1"
     inkscape:document-units="mm"
     inkscape:zoom="0.70710678"
     inkscape:cx="50.204581"
     inkscape:cy="869.74134"
     inkscape:window-width="2546"
     inkscape:window-height="1426"
     inkscape:window-x="0"
     inkscape:window-y="0"
     inkscape:window-maximized="1"
     inkscape:current-layer="layer1">
    <inkscape:page
       x="0"
       y="0"
       width="152.42293"
       height="66.66864"
       id="page2"
       margin="0"
       bleed="0" />
  </sodipodi:namedview>
  <defs
     id="defs1">
    <linearGradient
       id="linearGradient18"
       inkscape:collect="always">
      <stop
         style="stop-color:#4876ce;stop-opacity:1;"
         offset="0"
         id="stop18" />
      <stop
         style="stop-color:#9c50d7;stop-opacity:1;"
         offset="1"
         id="stop19" />
    </linearGradient>
    <linearGradient
       inkscape:collect="always"
       xlink:href="#linearGradient18"
       id="linearGradient19"
       x1="33.084564"
       y1="135.10226"
       x2="112.21289"
       y2="135.10226"
       gradientUnits="userSpaceOnUse" />
    <linearGradient
       inkscape:collect="always"
       xlink:href="#linearGradient18"
       id="linearGradient2"
       gradientUnits="userSpaceOnUse"
       x1="33.084564"
       y1="135.10226"
       x2="112.21289"
       y2="135.10226" />
    <linearGradient
       inkscape:collect="always"
       xlink:href="#linearGradient18"
       id="linearGradient3"
       gradientUnits="userSpaceOnUse"
       x1="33.084564"
       y1="135.10226"
       x2="112.21289"
       y2="135.10226" />
    <linearGradient
       inkscape:collect="always"
       xlink:href="#linearGradient18"
       id="linearGradient4"
       gradientUnits="userSpaceOnUse"
       x1="33.084564"
       y1="135.10226"
       x2="112.21289"
       y2="135.10226" />
  </defs>
  <g
     inkscape:label="Layer 1"
     inkscape:groupmode="layer"
     id="layer1"
     transform="translate(-29.747096,-119.3408)">
    <g
       id="g1"
       style="fill:url(#linearGradient19);fill-opacity:1"
       inkscape:export-filename="../repos/retailtherapy/src/icons/logo.svg"
       inkscape:export-xdpi="96"
       inkscape:export-ydpi="96"
       transform="matrix(1.9262752,0,0,1.9262752,-33.98288,-107.56905)">
      <path
         style="font-weight:900;font-size:20.6375px;line-height:0.9;font-family:Grandstander;-inkscape-font-specification:'Grandstander Heavy';fill:url(#linearGradient2);fill-opacity:1;stroke-width:1.00012;paint-order:stroke fill markers"
         d="m 54.660823,133.14119 c -0.0413,-0.77735 -0.0929,-1.72667 -0.15478,-2.84797 -0.0619,-1.12131 -0.12727,-2.31828 -0.19606,-3.59093 -0.0619,-1.27952 -0.12383,-2.54873 -0.18574,-3.80762 -0.055,-1.25889 -0.10662,-2.40771 -0.15478,-3.44646 0.28893,-0.0275 0.66384,-0.055 1.12475,-0.0825 0.46778,-0.0344 0.96996,-0.0654 1.50653,-0.0929 0.54346,-0.0344 1.07315,-0.0619 1.58909,-0.0826 0.51594,-0.0207 0.96652,-0.031 1.35176,-0.031 0.54345,0 1.09378,0.0516 1.651,0.15478 0.56409,0.0963 1.08347,0.27173 1.55813,0.52626 0.47466,0.25453 0.85645,0.61568 1.14538,1.08347 0.28892,0.46778 0.43339,1.07315 0.43339,1.8161 0,0.70855 -0.18918,1.38271 -0.56753,2.02247 -0.37148,0.63289 -0.82894,1.09723 -1.3724,1.39303 0.15822,0.30957 0.3302,0.67416 0.51594,1.09379 0.19262,0.41275 0.38179,0.84958 0.56753,1.31048 0.19262,0.45403 0.37492,0.90117 0.54689,1.34144 0.17886,0.44027 0.33708,0.8427 0.47467,1.20729 0.13758,0.35772 0.24077,0.64665 0.30956,0.86678 -0.25453,0.15134 -0.59161,0.2958 -1.01124,0.43339 -0.41963,0.1307 -0.84957,0.24764 -1.28984,0.35083 -0.44027,0.10319 -0.82206,0.18574 -1.14538,0.24765 -0.31644,0.0619 -0.50218,0.0963 -0.55722,0.10319 -0.0413,-0.19949 -0.1135,-0.50562 -0.21669,-0.91837 -0.10319,-0.41275 -0.22357,-0.87365 -0.36116,-1.38271 -0.13758,-0.51594 -0.27516,-1.025 -0.41275,-1.52718 -0.13758,-0.50905 -0.26484,-0.96652 -0.38179,-1.37239 -0.11694,-0.40587 -0.20637,-0.70168 -0.26829,-0.88741 -0.0894,0.0137 -0.16854,0.0275 -0.23733,0.0413 -0.0619,0.0137 -0.12726,0.0241 -0.19605,0.031 -0.0619,0 -0.14103,0.003 -0.23734,0.0103 0.0275,0.19261 0.0585,0.47122 0.0929,0.83582 0.0344,0.35771 0.0688,0.76358 0.10319,1.21761 0.0344,0.45403 0.0653,0.91837 0.0929,1.39303 0.0344,0.46779 0.0585,0.90805 0.0722,1.3208 0.0206,0.40587 0.031,0.73951 0.031,1.00092 -0.34396,0.0757 -0.76015,0.13071 -1.24857,0.1651 -0.48154,0.0413 -0.98372,0.0688 -1.50654,0.0826 -0.51593,0.0137 -1.00435,0.0206 -1.46526,0.0206 z m 3.45678,-9.07018 c 0.15822,0 0.32332,-0.003 0.4953,-0.0103 0.17886,-0.0137 0.39899,-0.0378 0.6604,-0.0722 0.30268,-0.0413 0.56409,-0.10662 0.78422,-0.19605 0.22702,-0.0894 0.399,-0.20982 0.51594,-0.36116 0.12383,-0.15822 0.18574,-0.3474 0.18574,-0.56753 0,-0.24765 -0.0654,-0.42307 -0.19606,-0.52626 -0.1307,-0.11007 -0.31988,-0.17886 -0.56753,-0.20637 -0.24765,-0.0275 -0.55033,-0.0413 -0.90805,-0.0413 -0.11006,0 -0.22357,0.003 -0.34052,0.0103 -0.11006,0.007 -0.21669,0.0172 -0.31988,0.031 -0.10319,0.007 -0.19949,0.0172 -0.28892,0.031 -0.0825,0.007 -0.15134,0.0137 -0.20638,0.0206 0.0138,0.11695 0.0275,0.24077 0.0413,0.37147 0.0138,0.13071 0.0275,0.26485 0.0413,0.40243 0.0206,0.13759 0.0344,0.27517 0.0413,0.41275 0.0138,0.13071 0.0241,0.25797 0.031,0.3818 0.0138,0.11694 0.0241,0.22357 0.031,0.31988 z m 17.25295,7.27472 c -0.22013,0.26141 -0.48498,0.49874 -0.79454,0.71199 -0.30268,0.21325 -0.65696,0.39555 -1.06283,0.5469 -0.39899,0.14446 -0.85302,0.25453 -1.36208,0.3302 -0.50906,0.0826 -1.07315,0.12382 -1.69227,0.12382 -1.04563,0 -1.9812,-0.18918 -2.8067,-0.56753 -0.81862,-0.38523 -1.46183,-0.95964 -1.92961,-1.72323 -0.46778,-0.76359 -0.70167,-1.72323 -0.70167,-2.87893 0,-1.19697 0.23389,-2.24261 0.70167,-3.1369 0.47466,-0.89429 1.14194,-1.58909 2.00184,-2.08439 0.8599,-0.4953 1.87457,-0.74295 3.04403,-0.74295 1.47214,0 2.6416,0.38867 3.50838,1.16602 0.86677,0.77047 1.30016,1.86425 1.30016,3.28136 0,0.27517 -0.0103,0.51938 -0.031,0.73263 -0.0206,0.20638 -0.0585,0.43339 -0.11351,0.68104 -0.11007,-0.007 -0.35428,-0.0137 -0.73263,-0.0206 -0.37147,-0.007 -0.78766,-0.0137 -1.24857,-0.0206 -0.45402,-0.007 -0.87021,-0.0137 -1.24857,-0.0206 -0.37835,-0.007 -0.626,-0.0103 -0.74295,-0.0103 -0.52969,0 -1.02155,0.0241 -1.47558,0.0722 -0.44714,0.0413 -0.79798,0.086 -1.05251,0.13415 0,0.0825 0.003,0.16853 0.0103,0.25796 0.0138,0.0825 0.0344,0.16167 0.0619,0.23734 0.0757,0.19261 0.19606,0.35427 0.36116,0.48498 0.1651,0.1307 0.36459,0.23045 0.59848,0.29924 0.23389,0.0619 0.48498,0.0929 0.75327,0.0929 0.19262,0 0.3818,-0.0138 0.56753,-0.0413 0.18574,-0.0275 0.37148,-0.0757 0.55722,-0.14446 0.19261,-0.0757 0.38179,-0.17542 0.56753,-0.29925 0.19261,-0.12382 0.39211,-0.28204 0.59848,-0.47466 0.0413,0.0344 0.16166,0.15479 0.36116,0.36116 0.20638,0.20637 0.44027,0.4609 0.70168,0.76359 0.2614,0.30268 0.51249,0.62256 0.75326,0.95964 0.24078,0.3302 0.42307,0.63976 0.5469,0.92869 z m -6.26348,-5.71659 c 0.19262,-0.0344 0.44371,-0.0654 0.75327,-0.0929 0.30956,-0.0275 0.67416,-0.0413 1.09379,-0.0413 0.24077,0 0.46778,0.003 0.68104,0.0103 0.21325,0.007 0.36459,0.0137 0.45402,0.0206 0,-0.0894 -0.0172,-0.19261 -0.0516,-0.30956 -0.0482,-0.17198 -0.14102,-0.32332 -0.27861,-0.45403 -0.1307,-0.13758 -0.29236,-0.24421 -0.48498,-0.31988 -0.19261,-0.0825 -0.40931,-0.12382 -0.65008,-0.12382 -0.33708,0 -0.61568,0.0791 -0.83582,0.23733 -0.22013,0.15134 -0.38523,0.3302 -0.4953,0.53657 -0.10318,0.20638 -0.1651,0.38524 -0.18574,0.53658 z m 16.7783,6.29444 c -0.15134,0.19949 -0.38867,0.41963 -0.71199,0.6604 -0.31644,0.23389 -0.71887,0.43339 -1.20729,0.59849 -0.48843,0.17198 -1.0594,0.25797 -1.71292,0.25797 -0.87365,0 -1.60284,-0.17886 -2.18757,-0.53658 -0.57785,-0.35771 -1.01124,-0.83925 -1.30016,-1.44462 -0.28893,-0.60537 -0.43339,-1.27609 -0.43339,-2.01216 0,-0.40587 0.003,-0.81174 0.0103,-1.21761 0.0137,-0.40587 0.0275,-0.79455 0.0413,-1.16602 0.0137,-0.37835 0.0275,-0.72919 0.0413,-1.05251 0.0207,-0.3302 0.0379,-0.61913 0.0516,-0.86678 0.0207,-0.24765 0.0344,-0.44714 0.0413,-0.59849 -0.44715,0.0481 -0.89429,0.10317 -1.34144,0.1651 -0.44027,0.055 -0.76015,0.10316 -0.95965,0.14447 -0.0894,-0.4953 -0.15478,-0.99404 -0.19605,-1.49622 -0.0481,-0.50218 -0.0791,-0.93213 -0.0929,-1.28985 -0.0206,-0.36459 -0.031,-0.58473 -0.031,-0.6604 0.40587,-0.0481 0.81518,-0.086 1.22793,-0.1135 0.41963,-0.0344 0.88053,-0.0619 1.38271,-0.0825 -0.0137,-0.0963 -0.0309,-0.30269 -0.0516,-0.61913 -0.0137,-0.32332 -0.0275,-0.60193 -0.0413,-0.83582 -0.007,-0.23389 -0.0206,-0.47122 -0.0413,-0.71199 -0.0207,-0.24765 -0.0379,-0.43683 -0.0516,-0.56753 l 3.78698,-0.3818 c -0.007,0.0688 -0.0137,0.22702 -0.0206,0.47467 v 0.88741 c 0,0.21325 0.003,0.45402 0.0103,0.72231 0.007,0.26829 0.0172,0.55377 0.031,0.85646 0.24077,-0.0137 0.5125,-0.0275 0.81519,-0.0413 0.30956,-0.0207 0.55033,-0.0344 0.72231,-0.0413 0.26829,-0.0207 0.4953,-0.0344 0.68104,-0.0413 0.19261,-0.007 0.34739,-0.0103 0.46434,-0.0103 h 0.25797 c 0.055,0.41963 0.0894,0.93556 0.10319,1.54781 0.0207,0.61225 0.031,1.16258 0.031,1.651 -0.0688,0 -0.28549,0.0103 -0.65009,0.031 -0.36459,0.0207 -0.71887,0.0413 -1.06283,0.0619 -0.23389,0.0137 -0.49873,0.0344 -0.79454,0.0619 -0.28893,0.0207 -0.50218,0.0379 -0.63976,0.0516 -0.007,0.12383 -0.0172,0.27861 -0.031,0.46434 -0.007,0.18574 -0.0137,0.39556 -0.0206,0.62945 -0.007,0.22701 -0.0137,0.47122 -0.0206,0.73263 -0.007,0.25453 -0.0137,0.5125 -0.0206,0.77391 v 0.74295 c 0,0.46778 0.0172,0.87021 0.0516,1.20729 0.0413,0.33708 0.12382,0.59849 0.24765,0.78422 0.12382,0.17886 0.31644,0.26829 0.57785,0.26829 0.1651,0 0.313,-0.0344 0.4437,-0.10319 0.13071,-0.0688 0.24765,-0.15134 0.35084,-0.24765 0.10319,-0.10319 0.19606,-0.20637 0.27861,-0.30956 0.11007,0.1651 0.26141,0.37835 0.45402,0.63976 0.19262,0.26141 0.39212,0.53314 0.59849,0.81519 0.21325,0.28204 0.40243,0.53657 0.56753,0.76358 0.17198,0.22013 0.28893,0.37148 0.35084,0.45403 z m 4.87045,1.12474 c -0.84614,0 -1.62005,-0.1135 -2.32172,-0.34051 -0.70167,-0.23389 -1.26233,-0.61225 -1.68196,-1.13507 -0.41963,-0.52281 -0.62944,-1.21761 -0.62944,-2.08439 0,-0.88741 0.25109,-1.58908 0.75327,-2.10502 0.50218,-0.52282 1.15226,-0.8943 1.95024,-1.11443 0.79799,-0.22701 1.63725,-0.34051 2.51778,-0.34051 0.28893,0 0.56409,0.0241 0.8255,0.0722 0.26829,0.0413 0.50562,0.0997 0.71199,0.17542 0.20637,0.0688 0.36459,0.14446 0.47466,0.22701 0,-0.14447 -0.0344,-0.30613 -0.10318,-0.48498 -0.0688,-0.17886 -0.1651,-0.32332 -0.28893,-0.43339 -0.17198,-0.15822 -0.38523,-0.2958 -0.63976,-0.41275 -0.25453,-0.11695 -0.61568,-0.17542 -1.08347,-0.17542 -0.44715,0 -0.8599,0.10663 -1.23825,0.31988 -0.37835,0.21325 -0.66728,0.44371 -0.86677,0.69136 l -3.08531,-1.9812 c 0.31644,-0.42651 0.74639,-0.79799 1.28984,-1.11443 0.55033,-0.32332 1.16602,-0.57441 1.84706,-0.75327 0.68791,-0.17885 1.39991,-0.26828 2.13598,-0.26828 1.25889,0 2.26325,0.18574 3.01308,0.55721 0.75671,0.36459 1.32424,0.90805 1.70259,1.63036 0.17198,0.32332 0.313,0.68448 0.42307,1.08347 0.11007,0.39899 0.19262,0.83238 0.24765,1.30016 0.0344,0.31645 0.0585,0.65009 0.0722,1.00092 0.0207,0.34396 0.031,0.70512 0.031,1.08347 0,0.57097 0.0516,0.94589 0.15478,1.12474 0.11007,0.17198 0.25797,0.25797 0.44371,0.25797 0.15822,0 0.30268,-0.0172 0.43338,-0.0516 0.13759,-0.0413 0.2339,-0.0894 0.28893,-0.14446 l 1.12474,2.69319 c -0.10319,0.14447 -0.32332,0.29581 -0.6604,0.45403 -0.33708,0.15134 -0.7911,0.22701 -1.36207,0.22701 -0.40587,0 -0.80487,-0.0619 -1.19698,-0.18574 -0.38523,-0.12382 -0.71199,-0.29924 -0.98028,-0.52625 -0.26141,-0.23389 -0.41275,-0.5125 -0.45402,-0.83582 -0.0894,0.26829 -0.29581,0.52625 -0.61913,0.7739 -0.32332,0.24077 -0.75327,0.43683 -1.28984,0.58817 -0.53658,0.15135 -1.18322,0.22702 -1.93993,0.22702 z m 0.89773,-2.96148 c 0.24765,0 0.50906,-0.0378 0.78423,-0.1135 0.28204,-0.0757 0.53657,-0.1651 0.76358,-0.26829 0.22701,-0.10319 0.38524,-0.19262 0.47467,-0.26829 -0.0207,-0.0757 -0.0413,-0.18918 -0.0619,-0.34052 -0.0137,-0.15822 -0.0206,-0.27516 -0.0206,-0.35083 -0.12383,-0.055 -0.35084,-0.10316 -0.68104,-0.14447 -0.32332,-0.0481 -0.63632,-0.0722 -0.93901,-0.0722 -0.28205,0 -0.56409,0.0206 -0.84614,0.0619 -0.27517,0.0413 -0.50562,0.11694 -0.69135,0.22702 -0.18574,0.10319 -0.27861,0.25797 -0.27861,0.46434 0,0.18573 0.0585,0.33707 0.17542,0.45402 0.11695,0.11695 0.28549,0.20638 0.50562,0.26829 0.22701,0.055 0.49874,0.0825 0.81518,0.0825 z m 12.134827,2.77575 c -0.12383,0.007 -0.39211,0.0241 -0.80486,0.0516 -0.40587,0.0275 -0.83926,0.0413 -1.30016,0.0413 -0.31645,0 -0.64321,-0.0103 -0.98028,-0.031 -0.3302,-0.0137 -0.6604,-0.0412 -0.990597,-0.0825 0.0275,-0.17886 0.0654,-0.54002 0.1135,-1.08347 0.0481,-0.54345 0.0963,-1.18322 0.14446,-1.91929 0.055,-0.74295 0.106597,-1.50998 0.154787,-2.30108 0.0481,-0.79111 0.086,-1.53406 0.1135,-2.22885 0.0275,-0.6948 0.0413,-1.25545 0.0413,-1.68196 0.17886,-0.0137 0.43339,-0.0275 0.76359,-0.0413 0.33708,-0.0137 0.69824,-0.0275 1.08347,-0.0413 0.38523,-0.0137 0.75327,-0.0241 1.1041,-0.031 0.35084,-0.0137 0.62945,-0.0206 0.83582,-0.0206 0.0481,0.23389 0.086,0.61913 0.11351,1.1557 0.0275,0.5297 0.0413,1.12131 0.0413,1.77483 0,0.61912 -0.0103,1.26232 -0.031,1.9296 -0.0207,0.6604 -0.0516,1.29672 -0.0929,1.90897 -0.0344,0.60537 -0.0791,1.1385 -0.13414,1.59941 -0.0551,0.46091 -0.11354,0.79455 -0.17542,1.00092 z m -1.50654,-10.51481 c -0.72231,0 -1.34143,-0.20638 -1.85737,-0.61913 -0.509057,-0.41275 -0.763587,-0.96996 -0.763587,-1.67163 0,-0.46779 0.12039,-0.87022 0.361157,-1.2073 0.24077,-0.33708 0.55033,-0.59505 0.92868,-0.7739 0.38523,-0.18574 0.78767,-0.27861 1.2073,-0.27861 0.67416,0 1.23825,0.21325 1.69227,0.63976 0.46091,0.42651 0.69136,0.98029 0.69136,1.66132 0,0.63977 -0.22013,1.17634 -0.6604,1.60973 -0.43339,0.42651 -0.96652,0.63976 -1.59941,0.63976 z m 9.86474,10.18461 c -0.22013,0.18573 -0.63288,0.36459 -1.23825,0.53657 -0.60537,0.17886 -1.25545,0.26829 -1.95025,0.26829 -0.88053,0 -1.55469,-0.18918 -2.02247,-0.56753 -0.46779,-0.37835 -0.78767,-0.91837 -0.95965,-1.62005 -0.17198,-0.70855 -0.25797,-1.54437 -0.25797,-2.50745 0,-0.84614 0.007,-1.66132 0.0207,-2.44555 0.0137,-0.7911 0.0309,-1.55125 0.0516,-2.28044 0.0275,-0.72919 0.055,-1.42743 0.0825,-2.09471 0.0344,-0.67415 0.0688,-1.31735 0.10318,-1.9296 0.0344,-0.61225 0.0688,-1.19354 0.10319,-1.74387 0.61225,-0.0413 1.1729,-0.0619 1.68196,-0.0619 0.32332,0 0.6432,0.007 0.95964,0.0206 0.32332,0.0137 0.68448,0.0378 1.08347,0.0722 -0.0413,0.67416 -0.086,1.38959 -0.13415,2.1463 -0.0481,0.75671 -0.0928,1.50998 -0.13414,2.25981 -0.0413,0.74983 -0.0791,1.46182 -0.11351,2.13598 -0.0344,0.67415 -0.0619,1.2692 -0.0825,1.78514 -0.0206,0.50906 -0.0309,0.89773 -0.0309,1.16602 0,0.39211 0.0138,0.74639 0.0413,1.06283 0.0344,0.31644 0.10319,0.56753 0.20637,0.75327 0.11007,0.18573 0.27173,0.2786 0.48498,0.2786 0.21325,0 0.38867,-0.0413 0.52626,-0.12382 0.14446,-0.0825 0.2614,-0.19261 0.35083,-0.3302 0.0481,0.10319 0.13068,0.30956 0.24765,0.61912 0.12383,0.30957 0.25453,0.65009 0.39212,1.02156 0.14446,0.37147 0.27172,0.70855 0.38179,1.01124 0.11007,0.29581 0.17886,0.48498 0.20638,0.56753 z"
         id="text1-5-9-7"
         aria-label="Retail Therapy"
         sodipodi:nodetypes="sscccccsscsssccccccccsccsccscccccscccccsscccccscssccccscccccccccscsscsscsccccssccccscssccccsccccsssccccsccsccccscssccccccccccccccccccssccccscccscccccccsccssccsccccscssccscccscsssccccsccsccscsccccsccccsssccsccccsccsscccccsccsccsccccccscccscscsscscscsscsscscccscsccssscsccsccccccs"
         inkscape:export-filename="../repos/retailtherapy/src/logo.svg"
         inkscape:export-xdpi="96"
         inkscape:export-ydpi="96" />
      <path
         d="m 33.367162,136.99101 c -0.0413,-0.17886 -0.0791,-0.44027 -0.11351,-0.78422 -0.0275,-0.35084 -0.0516,-0.71888 -0.0722,-1.10411 -0.0207,-0.38523 -0.0379,-0.72919 -0.0516,-1.03187 -0.007,-0.30269 -0.0103,-0.50218 -0.0103,-0.59849 0.76359,-0.0619 1.63036,-0.11353 2.60032,-0.15478 0.96996,-0.0481 1.95368,-0.0722 2.95116,-0.0722 0.77047,0 1.52374,0.0172 2.25981,0.0516 0.73607,0.0344 1.40679,0.0963 2.01216,0.18574 0,0.72919 -0.0275,1.3999 -0.0825,2.01215 -0.0551,0.60537 -0.12042,1.05251 -0.19606,1.34144 h -0.50562 -0.69136 c -0.24765,-0.007 -0.49186,-0.0103 -0.73263,-0.0103 -0.23389,-0.007 -0.43682,-0.0137 -0.6088,-0.0206 0.0137,0.25453 0.0309,0.61912 0.0516,1.09379 0.0275,0.47466 0.0551,1.01467 0.0826,1.62004 0.0344,0.59849 0.0688,1.22793 0.10319,1.88833 0.0413,0.65352 0.0791,1.29328 0.1135,1.91929 0.0344,0.62601 0.0654,1.19698 0.0929,1.71291 0.0275,0.50906 0.0516,0.92525 0.0722,1.24857 0.0207,0.32332 0.031,0.50562 0.031,0.54689 -0.35084,0.055 -0.80143,0.10316 -1.35176,0.14447 -0.54345,0.0481 -1.08691,0.0825 -1.63036,0.10318 -0.53657,0.0275 -0.97684,0.0413 -1.3208,0.0413 -0.0206,-0.39899 -0.0412,-0.86333 -0.0619,-1.39303 -0.0207,-0.52969 -0.0379,-1.09722 -0.0516,-1.70259 -0.0137,-0.60537 -0.0275,-1.22449 -0.0413,-1.85738 -0.0137,-0.63288 -0.0241,-1.25544 -0.031,-1.86769 -0.007,-0.61225 -0.0103,-1.18666 -0.0103,-1.72323 v -0.90805 c 0.007,-0.28893 0.0137,-0.55034 0.0206,-0.78423 -0.21325,0.0207 -0.43339,0.0379 -0.6604,0.0516 -0.22701,0.007 -0.4609,0.0172 -0.70167,0.031 -0.23389,0.007 -0.47466,0.0137 -0.72231,0.0206 h -0.74295 z m 14.62167,10.04015 c -0.19261,0.0344 -0.46434,0.0619 -0.81518,0.0826 -0.34395,0.0207 -0.70511,0.031 -1.08347,0.031 -0.44714,0 -0.85989,-0.0172 -1.23825,-0.0516 -0.37835,-0.0275 -0.65696,-0.0757 -0.83581,-0.14447 0.0481,-0.37147 0.0928,-0.85989 0.13414,-1.46526 0.0481,-0.61225 0.086,-1.3036 0.11351,-2.07407 0.0344,-0.77735 0.0516,-1.59253 0.0516,-2.44554 0,-0.95621 -0.0172,-1.93305 -0.0516,-2.93053 -0.0344,-1.00436 -0.0791,-1.97432 -0.13415,-2.90989 -0.0481,-0.94244 -0.0963,-1.79889 -0.14446,-2.56936 0.055,-0.0207 0.24074,-0.0551 0.55721,-0.10319 0.31644,-0.0481 0.68448,-0.0997 1.10411,-0.15478 0.42651,-0.055 0.83238,-0.10316 1.21761,-0.14447 0.38523,-0.0413 0.67072,-0.0619 0.85646,-0.0619 0.11007,0.51594 0.20981,1.11099 0.29924,1.78515 0.0894,0.67416 0.1651,1.41711 0.22701,2.22885 0.0688,0.80486 0.11695,1.67163 0.14447,2.60032 0.23389,-0.23389 0.51937,-0.43682 0.85645,-0.6088 0.33708,-0.17198 0.69824,-0.30268 1.08347,-0.39211 0.39211,-0.0963 0.77391,-0.14447 1.14538,-0.14447 0.88741,0 1.55813,0.15478 2.01216,0.46435 0.4609,0.30268 0.7739,0.7567 0.939,1.36207 0.1651,0.59849 0.24765,1.34488 0.24765,2.23917 0,0.57097 -0.0241,1.17978 -0.0722,1.82642 -0.0413,0.63976 -0.0997,1.26232 -0.17542,1.86769 -0.0688,0.60537 -0.1479,1.13506 -0.23733,1.58909 -0.2958,0.0481 -0.59848,0.086 -0.90805,0.11351 -0.30956,0.0275 -0.61912,0.0413 -0.92868,0.0413 -0.33708,0 -0.67072,-0.0172 -1.00092,-0.0516 -0.3302,-0.0275 -0.63632,-0.0688 -0.91837,-0.12383 0.0481,-0.29581 0.0997,-0.65352 0.15478,-1.07315 0.055,-0.42651 0.10659,-0.85989 0.15478,-1.30016 0.055,-0.44715 0.0963,-0.86334 0.12383,-1.24857 0.0344,-0.38523 0.0516,-0.69136 0.0516,-0.91837 0,-0.30956 -0.0378,-0.56409 -0.11351,-0.76359 -0.0688,-0.19949 -0.17197,-0.34739 -0.30956,-0.4437 -0.13071,-0.0963 -0.29237,-0.14447 -0.48498,-0.14447 -0.1651,0 -0.32332,0.0241 -0.47466,0.0722 -0.15135,0.0481 -0.29581,0.11349 -0.43339,0.19606 -0.13759,0.0825 -0.26829,0.17886 -0.39211,0.28893 -0.12383,0.11007 -0.23733,0.22701 -0.34052,0.35083 0,0.67416 -0.0206,1.338 -0.0619,1.99152 -0.0344,0.65352 -0.0826,1.25201 -0.14447,1.79546 -0.055,0.54346 -0.11347,0.99061 -0.17542,1.34144 z m 18.22294,-1.59941 c -0.22013,0.26141 -0.48498,0.49874 -0.79454,0.71199 -0.30269,0.21325 -0.65696,0.39555 -1.06283,0.5469 -0.39899,0.14446 -0.85302,0.25453 -1.36208,0.3302 -0.50905,0.0826 -1.07314,0.12382 -1.69227,0.12382 -1.04563,0 -1.9812,-0.18918 -2.8067,-0.56753 -0.81862,-0.38523 -1.46182,-0.95964 -1.92961,-1.72323 -0.46778,-0.76359 -0.70167,-1.72323 -0.70167,-2.87893 0,-1.19697 0.23389,-2.24261 0.70167,-3.1369 0.47467,-0.89429 1.14195,-1.58909 2.00184,-2.08439 0.85989,-0.4953 1.87457,-0.74295 3.04403,-0.74295 1.47214,0 2.6416,0.38867 3.50838,1.16602 0.86677,0.77047 1.30016,1.86425 1.30016,3.28136 0,0.27517 -0.0103,0.51938 -0.031,0.73263 -0.0206,0.20638 -0.0584,0.43339 -0.1135,0.68104 -0.11007,-0.007 -0.35428,-0.0137 -0.73264,-0.0206 -0.37147,-0.007 -0.78766,-0.0137 -1.24856,-0.0206 -0.45403,-0.007 -0.87022,-0.0137 -1.24857,-0.0206 -0.37835,-0.007 -0.626,-0.0103 -0.74295,-0.0103 -0.5297,0 -1.02156,0.0241 -1.47558,0.0722 -0.44715,0.0413 -0.79799,0.086 -1.05252,0.13415 0,0.0825 0.003,0.16853 0.0103,0.25796 0.0137,0.0825 0.0344,0.16167 0.0619,0.23734 0.0757,0.19261 0.19606,0.35427 0.36116,0.48498 0.1651,0.1307 0.3646,0.23045 0.59849,0.29924 0.23389,0.0619 0.48498,0.0929 0.75327,0.0929 0.19261,0 0.38179,-0.0138 0.56753,-0.0413 0.18573,-0.0275 0.37147,-0.0757 0.55721,-0.14446 0.19262,-0.0757 0.3818,-0.17542 0.56753,-0.29925 0.19262,-0.12382 0.39212,-0.28204 0.59849,-0.47466 0.0413,0.0344 0.16165,0.15479 0.36116,0.36116 0.20637,0.20637 0.44026,0.4609 0.70167,0.76359 0.26141,0.30268 0.5125,0.62256 0.75327,0.95964 0.24077,0.3302 0.42307,0.63976 0.54689,0.92869 z m -6.26348,-5.71659 c 0.19262,-0.0344 0.44371,-0.0654 0.75327,-0.0929 0.30956,-0.0275 0.67416,-0.0413 1.09379,-0.0413 0.24077,0 0.46778,0.003 0.68104,0.0103 0.21325,0.007 0.36459,0.0137 0.45402,0.0206 0,-0.0894 -0.0172,-0.19261 -0.0516,-0.30956 -0.0481,-0.17198 -0.141,-0.32332 -0.27861,-0.45403 -0.13071,-0.13758 -0.29237,-0.24421 -0.48498,-0.31988 -0.19262,-0.0825 -0.40931,-0.12382 -0.65008,-0.12382 -0.33708,0 -0.61569,0.0791 -0.83582,0.23733 -0.22013,0.15134 -0.38523,0.3302 -0.4953,0.53657 -0.10319,0.20638 -0.1651,0.38524 -0.18574,0.53658 z m 11.23713,-2.04311 c 0.12383,-0.28893 0.32676,-0.57097 0.60881,-0.84614 0.28205,-0.28205 0.62944,-0.5125 1.04219,-0.69135 0.41963,-0.18574 0.88398,-0.27861 1.39303,-0.27861 0.30957,0 0.61569,0.0344 0.91837,0.10319 0.30269,0.0688 0.51594,0.15134 0.63976,0.24765 l -0.79454,4.08622 c -0.14446,-0.055 -0.3302,-0.11691 -0.55721,-0.18573 -0.22701,-0.0757 -0.47122,-0.11351 -0.73263,-0.11351 -0.26141,0 -0.50906,0.0413 -0.74295,0.12382 -0.22701,0.0757 -0.44027,0.18918 -0.63977,0.34052 -0.19261,0.15135 -0.37835,0.33709 -0.55721,0.55722 0.055,0.35083 0.12035,0.8083 0.19606,1.37239 0.0825,0.56409 0.16166,1.14882 0.23733,1.75419 0.0757,0.60537 0.13759,1.1557 0.18574,1.651 0.055,0.48842 0.0825,0.8427 0.0825,1.06283 -0.61225,0.0825 -1.3036,0.13758 -2.07407,0.1651 -0.77047,0.0275 -1.52374,0.0413 -2.25981,0.0413 0,-0.53658 -0.0172,-1.17978 -0.0516,-1.92961 -0.0275,-0.75671 -0.0688,-1.55469 -0.12383,-2.39395 -0.055,-0.83926 -0.12035,-1.66132 -0.19605,-2.46618 -0.0688,-0.80486 -0.14447,-1.53061 -0.22702,-2.17726 -0.0825,-0.65352 -0.1651,-1.16258 -0.24765,-1.52717 0.42651,-0.11695 0.88742,-0.22357 1.38272,-0.31988 0.50217,-0.10319 0.94932,-0.18574 1.34143,-0.24765 0.39211,-0.0619 0.63976,-0.0963 0.74295,-0.10319 0.0825,0.17198 0.17542,0.44715 0.27861,0.8255 0.10319,0.37147 0.15478,0.68791 0.15478,0.94932 z m 9.679,9.46229 c -0.84614,0 -1.62005,-0.1135 -2.32172,-0.34051 -0.70167,-0.23389 -1.26233,-0.61225 -1.68196,-1.13507 -0.41963,-0.52281 -0.62944,-1.21761 -0.62944,-2.08439 0,-0.88741 0.25109,-1.58908 0.75327,-2.10502 0.50218,-0.52282 1.15226,-0.8943 1.95024,-1.11443 0.79799,-0.22701 1.63725,-0.34051 2.51778,-0.34051 0.28892,0 0.56409,0.0241 0.8255,0.0722 0.26829,0.0413 0.50562,0.0997 0.71199,0.17542 0.20637,0.0688 0.36459,0.14446 0.47466,0.22701 0,-0.14447 -0.0344,-0.30613 -0.10318,-0.48498 -0.0688,-0.17886 -0.1651,-0.32332 -0.28893,-0.43339 -0.17198,-0.15822 -0.38523,-0.2958 -0.63976,-0.41275 -0.25453,-0.11695 -0.61569,-0.17542 -1.08347,-0.17542 -0.44715,0 -0.8599,0.10663 -1.23825,0.31988 -0.37835,0.21325 -0.66728,0.44371 -0.86678,0.69136 l -3.0853,-1.9812 c 0.31644,-0.42651 0.74639,-0.79799 1.28984,-1.11443 0.55033,-0.32332 1.16602,-0.57441 1.84706,-0.75327 0.68791,-0.17885 1.39991,-0.26828 2.13598,-0.26828 1.25889,0 2.26324,0.18574 3.01307,0.55721 0.75671,0.36459 1.32425,0.90805 1.7026,1.63036 0.17198,0.32332 0.313,0.68448 0.42307,1.08347 0.11007,0.39899 0.19262,0.83238 0.24765,1.30016 0.0344,0.31645 0.0585,0.65009 0.0722,1.00092 0.0207,0.34396 0.031,0.70512 0.031,1.08347 0,0.57097 0.0516,0.94589 0.15479,1.12474 0.11007,0.17198 0.25797,0.25797 0.4437,0.25797 0.15822,0 0.30268,-0.0172 0.43339,-0.0516 0.13758,-0.0413 0.23389,-0.0894 0.28892,-0.14446 l 1.12475,2.69319 c -0.10319,0.14447 -0.32332,0.29581 -0.6604,0.45403 -0.33708,0.15134 -0.79111,0.22701 -1.36208,0.22701 -0.40587,0 -0.80486,-0.0619 -1.19697,-0.18574 -0.38523,-0.12382 -0.71199,-0.29924 -0.98028,-0.52625 -0.26141,-0.23389 -0.41276,-0.5125 -0.45403,-0.83582 -0.0894,0.26829 -0.2958,0.52625 -0.61912,0.7739 -0.32332,0.24077 -0.75327,0.43683 -1.28985,0.58817 -0.53657,0.15135 -1.18321,0.22702 -1.93992,0.22702 z m 0.89773,-2.96148 c 0.24765,0 0.50905,-0.0378 0.78422,-0.1135 0.28205,-0.0757 0.53658,-0.1651 0.76359,-0.26829 0.22701,-0.10319 0.38523,-0.19262 0.47466,-0.26829 -0.0207,-0.0757 -0.0413,-0.18918 -0.0619,-0.34052 -0.0137,-0.15822 -0.0206,-0.27516 -0.0206,-0.35083 -0.12382,-0.055 -0.35083,-0.10316 -0.68103,-0.14447 -0.32332,-0.0481 -0.63632,-0.0722 -0.93901,-0.0722 -0.28205,0 -0.56409,0.0206 -0.84614,0.0619 -0.27517,0.0413 -0.50562,0.11694 -0.69135,0.22702 -0.18574,0.10319 -0.27861,0.25797 -0.27861,0.46434 0,0.18573 0.0585,0.33707 0.17542,0.45402 0.11695,0.11695 0.28549,0.20638 0.50562,0.26829 0.22701,0.055 0.49874,0.0825 0.81518,0.0825 z m 7.72872,7.50173 c 0.0688,-1.18321 0.12727,-2.41802 0.17542,-3.70443 0.0481,-1.2864 0.086,-2.54873 0.11351,-3.78698 0.0344,-1.24513 0.0619,-2.39739 0.0825,-3.45678 0.0207,-1.06627 0.0344,-1.97432 0.0413,-2.72415 0.007,-0.74983 0.0103,-1.27264 0.0103,-1.56845 0.5297,-0.17198 1.13507,-0.29237 1.8161,-0.36116 0.68104,-0.0757 1.34488,-0.1135 1.99152,-0.1135 0.0275,0.25453 0.0516,0.52625 0.0722,0.81518 0.0207,0.28205 0.031,0.54689 0.031,0.79454 0.11007,-0.1651 0.31644,-0.37491 0.61912,-0.62944 0.30269,-0.25453 0.6948,-0.48155 1.17634,-0.68104 0.48154,-0.19949 1.04219,-0.29924 1.68196,-0.29924 1.42399,0 2.45586,0.45058 3.095618,1.35175 0.64665,0.89429 0.96997,2.14286 0.96997,3.74571 0,1.12131 -0.22701,2.08439 -0.68104,2.88925 -0.44715,0.80486 -1.045628,1.42055 -1.795458,1.84706 -0.74983,0.42651 -1.57533,0.63976 -2.4765,0.63976 -0.39211,0 -0.78423,-0.0447 -1.17634,-0.13415 -0.38523,-0.0963 -0.72575,-0.21669 -1.02156,-0.36115 -0.2958,-0.14447 -0.49873,-0.29237 -0.6088,-0.44371 0,0.17886 -0.007,0.45747 -0.0206,0.83582 -0.007,0.37147 -0.0172,0.7911 -0.031,1.25889 -0.0137,0.47466 -0.0309,0.95276 -0.0516,1.4343 -0.0207,0.48155 -0.0413,0.92525 -0.0619,1.33112 -0.0207,0.41275 -0.0413,0.73951 -0.0619,0.98028 -0.45402,0.0894 -0.93212,0.15823 -1.4343,0.20638 -0.4953,0.0481 -0.96308,0.0825 -1.40335,0.10319 -0.43339,0.0207 -0.78423,0.031 -1.05252,0.031 z m 6.28412,-9.22496 c 0.33708,0 0.63632,-0.0653 0.89773,-0.19606 0.26141,-0.1307 0.46779,-0.31988 0.61913,-0.56753 0.15134,-0.25453 0.22701,-0.55721 0.22701,-0.90805 0,-0.4953 -0.11351,-0.87365 -0.34052,-1.13506 -0.22701,-0.26829 -0.626,-0.40243 -1.19697,-0.40243 -0.35772,0 -0.67416,0.0482 -0.94933,0.14446 -0.27517,0.0894 -0.50906,0.20638 -0.70167,0.35084 -0.18574,0.13758 -0.34052,0.28548 -0.46435,0.44371 0,0.0894 -0.003,0.20293 -0.0103,0.34051 0,0.13071 -0.003,0.26829 -0.0103,0.41276 0,0.14446 -0.003,0.2786 -0.0103,0.40243 0,0.12382 -0.003,0.22013 -0.0103,0.28892 0.11007,0.11695 0.24077,0.24077 0.39211,0.37148 0.15822,0.12382 0.36116,0.23045 0.60881,0.31988 0.24765,0.0894 0.56409,0.13414 0.94932,0.13414 z m 10.762458,9.95759 c -1.10755,0 -2.10846,-0.1651 -3.00275,-0.4953 -0.88741,-0.32332 -1.63724,-0.68447 -2.24949,-1.08346 0.10319,-0.28205 0.26141,-0.6432 0.47466,-1.08347 0.21325,-0.44027 0.43339,-0.86678 0.6604,-1.27953 0.22701,-0.41275 0.40931,-0.71543 0.5469,-0.90805 0.27517,0.17198 0.61224,0.35428 1.01123,0.5469 0.40587,0.19949 0.83926,0.36803 1.30017,0.50561 0.46778,0.14447 0.92868,0.2167 1.38271,0.2167 0.41963,0 0.77046,-0.11007 1.05251,-0.3302 0.28893,-0.22013 0.52282,-0.50906 0.70168,-0.86678 0.17885,-0.35771 0.30956,-0.74295 0.39211,-1.1557 0.0894,-0.41963 0.14102,-0.8255 0.15478,-1.21761 -0.17886,0.26141 -0.40587,0.4953 -0.68104,0.70168 -0.27517,0.19949 -0.57441,0.35771 -0.89773,0.47466 -0.31644,0.11695 -0.63288,0.17542 -0.94932,0.17542 -1.10755,0 -1.97088,-0.28893 -2.59001,-0.86678 -0.61913,-0.57785 -1.05251,-1.35175 -1.30016,-2.32172 -0.24765,-0.97684 -0.37148,-2.06375 -0.37148,-3.26072 0,-0.46779 0.0103,-0.95965 0.031,-1.47558 0.0206,-0.51594 0.0447,-1.05596 0.0722,-1.62005 0.13758,-0.0344 0.34395,-0.0585 0.61912,-0.0722 0.28205,-0.0137 0.58817,-0.0206 0.91837,-0.0206 0.48155,0 0.95277,0.0138 1.41367,0.0413 0.46779,0.0275 0.78423,0.0585 0.94933,0.0929 -0.0275,0.13071 -0.0654,0.35428 -0.11351,0.67072 -0.0413,0.30957 -0.0791,0.67416 -0.11351,1.09379 -0.0344,0.41275 -0.0516,0.83582 -0.0516,1.26921 0,0.35771 0.0172,0.70511 0.0516,1.04219 0.0344,0.3302 0.0929,0.62944 0.17542,0.89773 0.0825,0.26141 0.19606,0.47122 0.34052,0.62944 0.15134,0.15823 0.33708,0.23734 0.55721,0.23734 0.44715,0 0.79111,-0.18574 1.03188,-0.55722 0.24765,-0.37835 0.41963,-0.89085 0.51594,-1.53749 0.0963,-0.64664 0.14446,-1.37583 0.14446,-2.18758 0,-0.21325 -0.003,-0.40243 -0.0103,-0.56753 0,-0.1651 -0.003,-0.30956 -0.0103,-0.43338 -0.007,-0.13071 -0.0172,-0.24077 -0.0309,-0.3302 -0.007,-0.0894 -0.0137,-0.16511 -0.0206,-0.22702 0.19949,-0.0137 0.39211,-0.0241 0.57785,-0.031 0.19261,-0.0137 0.38179,-0.0206 0.56753,-0.0206 0.77735,0 1.56501,0.086 2.36299,0.25797 0.0413,0.90805 0.0619,1.92961 0.0619,3.06467 0,0.61225 -0.007,1.25201 -0.0206,1.91929 -0.007,0.6604 -0.0241,1.33456 -0.0516,2.02247 -0.0206,0.68792 -0.0516,1.38272 -0.0929,2.08439 -0.0619,1.19009 -0.30271,2.23573 -0.72232,3.1369 -0.41275,0.90117 -1.01811,1.60285 -1.8161,2.10503 -0.7911,0.50905 -1.7817,0.76358 -2.9718,0.76358 z"
         style="font-weight:900;font-size:20.6375px;line-height:0.9;font-family:Grandstander;-inkscape-font-specification:'Grandstander Heavy';fill:url(#linearGradient3);fill-opacity:1;stroke-width:1.00012;paint-order:stroke fill markers"
         id="path1" />
      <rect
         style="fill:url(#linearGradient4);fill-opacity:1;stroke-width:0.50757;paint-order:stroke fill markers"
         id="rect12"
         width="19.376354"
         height="10.975078"
         x="33.084564"
         y="119.55677"
         ry="1.0003471" />
      <path
         d="m 41.542043,120.38233 c 0.638875,-4.6e-4 1.156954,0.5174 1.156954,1.15629 0,0.63888 -0.518079,1.15692 -1.156954,1.15645 -0.638311,-4.6e-4 -1.155607,-0.51814 -1.155607,-1.15645 0,-0.6383 0.517296,-1.15581 1.155607,-1.15629 z m -1.47741,2.41659 c 0.08465,0.004 0.18029,0.0216 0.279562,0.0629 0.197557,0.0823 0.314726,0.2214 0.376504,0.30497 0.110902,0.15878 0.206578,0.32771 0.305987,0.49382 0.109679,0.18402 0.198892,0.33307 0.285113,0.46588 0.120257,0.18434 0.205229,0.28788 0.279563,0.35463 0.105054,0.0945 0.254879,0.18385 0.791724,0.19608 0.879941,0.009 0.867455,1.32872 -0.01248,1.32138 v 0 c -0.675269,-0.0159 -1.21872,-0.13481 -1.66339,-0.53522 -0.120846,-0.11072 -0.230681,-0.23287 -0.328033,-0.36472 l -0.41202,0.51435 0.390815,0.38559 0.669699,0.66079 0.414203,0.40899 c 0.06017,0.0593 0.108381,0.12953 0.142052,0.20701 l 0.685522,1.58059 c 0.349735,0.80802 -0.862757,1.33349 -1.212491,0.52546 l -0.63419,-1.46277 -1.004971,-0.99151 -0.201466,0.72929 -0.228897,0.77135 c -0.01674,0.0568 -0.04077,0.11035 -0.07203,0.16056 l -0.544815,0.87908 c -0.464742,0.74872 -1.588027,0.0516 -1.123291,-0.69712 l 0.498529,-0.80283 0.338638,-1.14299 c 0.16079,-0.63357 0.106079,-0.46865 0.201801,-0.8259 -0.0399,-0.0696 -0.456763,-0.84731 0.129598,-1.98217 0.126342,-0.2458 0.284245,-0.47409 0.46975,-0.67895 0.14734,-0.16023 0.377271,-0.37129 0.657415,-0.45157 0.223536,-0.0687 0.389141,-0.0941 0.521587,-0.0869 z"
         style="baseline-shift:baseline;clip-rule:evenodd;display:inline;overflow:visible;vector-effect:none;fill:#ffffff;fill-opacity:1;fill-rule:evenodd;stroke-width:0.15542;enable-background:accumulate;stop-color:#000000"
         id="path1-1" />
    </g>
  </g>
  <rect
     style="display:none;fill:#1a1a1a;stroke-width:1.53872;paint-order:stroke fill markers"
     id="rect2"
     width="76.517181"
     height="76.5084"
     x="69.318695"
     y="53.378361"
     ry="2.7816079" />
</svg>
