<?xml version="1.0" encoding="UTF-8"?>
<svg width="708.36" height="318.01" version="1.1" viewBox="0 0 187.42 84.139" xmlns="http://www.w3.org/2000/svg">
<g transform="translate(-161.51 -104.88)">
<title>Retail Therapy</title>
<path d="m212.55 143.36q-0.14761-2.7641-0.36658-6.7485-0.22019-3.9856-0.46376-8.5089l-0.44039-9.0231a3081.5 3081.5 0 0 0-0.36658-8.1669 78.729 78.729 0 0 1 2.6645-0.1956q1.6632-0.12301 3.5699-0.22019 1.9313-0.12178 3.7654-0.19559 1.8341-0.0738 3.2033-0.0738 1.9313 0 3.9118 0.36781a12.055 12.055 0 0 1 3.6929 1.2461 7.0733 7.0733 0 0 1 2.7137 2.5685q1.0272 1.6607 1.0272 4.303 0 2.5181-1.3445 4.7926-1.3212 2.2487-3.2525 3.3005 0.56217 1.101 1.2228 2.5919 0.68395 1.4663 1.3445 3.1049 0.68396 1.6139 1.2966 3.1787 0.63475 1.5647 1.1243 2.8613 0.4896 1.2707 0.73317 2.0543-0.90539 0.53757-2.3963 1.0259-1.4909 0.465-3.0557 0.83158a68.888 68.888 0 0 1-4.0349 0.83157 60.277 60.277 0 0 0-0.51297-2.1773q-0.36904-1.4651-0.85618-3.2759a548.64 548.64 0 0 0-1.8821-6.8703 59.047 59.047 0 0 0-0.63598-2.1035 12.301 12.301 0 0 0-0.56218 0.0984q-0.22142 0.0492-0.46499 0.0738-0.22143 0-0.56217 0.0246 0.0972 0.68273 0.22019 1.9805 0.12178 1.2707 0.24357 2.8847 0.12301 1.6152 0.22142 3.3017 0.12179 1.6607 0.16976 3.1295 0.0738 1.4417 0.0738 2.3717-1.2215 0.2694-2.9585 0.39118-1.7124 0.14762-3.5699 0.1956-1.8341 0.0492-3.4714 0.0492zm8.1927-21.493q0.56094 0 1.1723-0.0246a29.523 29.523 0 0 0 1.5647-0.17099 7.7499 7.7499 0 0 0 1.8575-0.46376q0.8082-0.31984 1.224-0.85618a2.1158 2.1158 0 0 0 0.44039-1.3445q0-0.88078-0.465-1.2474-0.46499-0.39119-1.3445-0.4896a19.682 19.682 0 0 0-2.9585-0.0738 11.071 11.071 0 0 0-0.75899 0.0738 8.611 8.611 0 0 0-0.68396 0.0738q-0.294 0.0246-0.48959 0.0492 0.0492 0.41579 0.0984 0.87955l0.0984 0.95336q0.0738 0.4896 0.0972 0.97919 0.0492 0.46376 0.0738 0.90415 0.048 0.41456 0.0738 0.75777m40.881 17.238q-0.78236 0.92875-1.8821 1.6878a11.071 11.071 0 0 1-2.5193 1.2953q-1.4171 0.51299-3.2266 0.78239-1.8108 0.29523-4.0103 0.294-3.7162 0-6.6514-1.3458a10.456 10.456 0 0 1-4.5724-4.0828q-1.6607-2.7137-1.6619-6.8224 0-4.2538 1.6619-7.4325 1.6878-3.1787 4.7434-4.939 3.0557-1.7603 7.2136-1.7603 5.233 0 8.3133 2.7629 3.0815 2.7371 3.0815 7.7745 0 0.97796-0.0738 1.737-0.0738 0.73316-0.2694 1.6139a51.666 51.666 0 0 0-1.7357-0.0492 779.91 779.91 0 0 0-2.9585-0.0492q-1.614-0.0246-2.9585-0.0492a120.55 120.55 0 0 0-1.7603-0.0246q-1.8821 0-3.4973 0.17222a28.293 28.293 0 0 0-2.4935 0.31738q0 0.29523 0.0246 0.61138 0.0492 0.29523 0.14639 0.56217a2.7063 2.7063 0 0 0 0.85617 1.1502q0.58678 0.46376 1.4171 0.70856 0.8328 0.22143 1.7849 0.2202 0.68642 0 1.3458-0.0984a6.5197 6.5197 0 0 0 1.3199-0.34198 7.1348 7.1348 0 0 0 1.3446-0.70856 10.21 10.21 0 0 0 1.4184-1.1256q0.14761 0.12301 0.85617 0.85618 0.73317 0.73439 1.6619 1.8095 0.92999 1.0764 1.7849 2.2733 0.85617 1.1748 1.2966 2.202zm-14.842-13.546a20.912 20.912 0 0 1 1.7837-0.21896q1.1022-0.0984 2.5931-0.0984a47.975 47.975 0 0 1 2.6891 0.0738q0-0.31984-0.12301-0.7344a2.3373 2.3373 0 0 0-0.65936-1.0751 3.1984 3.1984 0 0 0-1.149-0.759 3.8749 3.8749 0 0 0-1.5401-0.29277q-1.1982 0-1.9805 0.56218a3.6166 3.6166 0 0 0-1.1736 1.272q-0.36782 0.73316-0.44039 1.2707m39.758 14.915q-0.54003 0.71103-1.6878 1.5647-1.1256 0.83035-2.8613 1.4184-1.7345 0.61261-4.0595 0.61138-3.1049 0-5.1826-1.2707a7.9959 7.9959 0 0 1-3.0803-3.4235q-1.0272-2.1515-1.0272-4.768-1e-3 -1.443 0.0246-2.8859a815.58 815.58 0 0 1 0.19559-5.2564q0.0738-1.1736 0.12301-2.0543 0.0713-0.87955 0.0972-1.4184-1.5906 0.17222-3.1787 0.39119-1.566 0.19682-2.2745 0.34321a36.904 36.904 0 0 1-0.46499-3.5453 55.356 55.356 0 0 1-0.2202-3.0569q-0.0738-1.2953-0.0738-1.5647 1.4442-0.17222 2.9105-0.2694 1.4909-0.12179 3.2771-0.1956-0.0492-0.34197-0.12301-1.4663a121.78 121.78 0 0 0-0.0984-1.9805q-0.0246-0.83034-0.0972-1.6878-0.0738-0.87955-0.12301-1.3445l8.9739-0.90415q-0.0246 0.24356-0.0492 1.1243v2.1023q0 0.75654 0.0246 1.7099 0.0258 0.95459 0.0738 2.0297 0.85617-0.0492 1.9313-0.0984 1.101-0.0713 1.7124-0.0972 0.95336-0.0738 1.6139-0.0984 0.68396-0.0246 1.0998-0.0246h0.61138q0.19559 1.4934 0.2448 3.6683 0.0738 2.1774 0.0738 3.9118-0.24479 0-1.5414 0.0738t-2.5181 0.14762q-0.83034 0.0492-1.8821 0.14638-1.0284 0.0738-1.5168 0.12302-0.0246 0.43916-0.0738 1.0997-0.0246 0.66059-0.0492 1.4909l-0.048 1.7357-0.0492 1.8341v1.7603q0 1.6632 0.12302 2.8613 0.14761 1.1994 0.58677 1.8575 0.44039 0.63599 1.3692 0.63599 0.58677 0 1.0518-0.24357 0.46499-0.24603 0.83157-0.58678a8.611 8.611 0 0 0 0.65936-0.73439q0.39118 0.58677 1.0764 1.5168l1.4184 1.9313q0.75777 1.0013 1.3445 1.8083 0.61015 0.78359 0.83158 1.0764zm11.54 2.6657q-3.0077 0-5.5012-0.80697-2.4947-0.83158-3.9856-2.6903-1.4909-1.8588-1.4897-4.939 0-3.1528 1.7837-4.987 1.7862-1.8587 4.6216-2.6411a21.65 21.65 0 0 1 5.9662-0.80697q1.0284 0 1.9559 0.17098 0.95336 0.14762 1.6878 0.41579 0.73317 0.24357 1.1244 0.53757 0-0.5142-0.2448-1.149a2.5833 2.5833 0 0 0-0.68395-1.0272 5.7817 5.7817 0 0 0-1.5155-0.97797q-0.90415-0.41578-2.5673-0.41578-1.5906 0-2.9351 0.75776-1.3433 0.759-2.0543 1.6386l-7.3095-4.6942q1.1244-1.5155 3.0557-2.6411 1.9559-1.149 4.3768-1.7849a20.051 20.051 0 0 1 5.062-0.63598q4.4752 0 7.1397 1.3212 2.6878 1.2953 4.0348 3.8626 0.60892 1.1502 1.0013 2.5673 0.39118 1.4196 0.58677 3.0815 0.12302 1.1244 0.17222 2.3717 0.0738 1.2215 0.0726 2.5673 0 2.0297 0.36658 2.6645 0.39119 0.61261 1.0518 0.61138 0.56218 0 1.0272-0.12302 0.48837-0.14515 0.68396-0.34075l2.6657 6.3807q-0.36781 0.5142-1.5647 1.0764-1.1994 0.5388-3.2279 0.53757-1.4417 0-2.8367-0.44039-1.3691-0.43916-2.3225-1.2461-0.92876-0.83034-1.0764-1.9805-0.31738 0.95335-1.4663 1.8329-1.149 0.85617-3.0569 1.3938-1.9079 0.53757-4.597 0.5388m2.1281-7.0179q0.87955 0 1.8575-0.26817a11.686 11.686 0 0 0 1.8095-0.63599q0.80697-0.36658 1.1244-0.63598a7.3808 7.3808 0 0 1-0.14639-0.80697 11.071 11.071 0 0 1-0.0492-0.83158q-0.43916-0.19559-1.6127-0.34197a14.762 14.762 0 0 0-2.2266-0.17222q-1.0013 0-2.0039 0.14761-0.97796 0.14762-1.6386 0.53757-0.65935 0.36782-0.65935 1.101 0 0.66181 0.41456 1.0751 0.41578 0.41702 1.1982 0.63598 0.8082 0.19683 1.9313 0.19683m28.755 6.5776q-0.44162 0.0246-1.9067 0.12301a45.515 45.515 0 0 1-3.0815 0.0972q-1.1256 0-2.3237-0.0738a28.293 28.293 0 0 1-2.3471-0.19559q0.0984-0.63475 0.2694-2.5673 0.17099-1.9313 0.34198-4.5478 0.19683-2.6386 0.36658-5.452 0.17222-2.8121 0.26941-5.2822 0.0984-2.4689 0.0984-3.9856 0.63475-0.0492 1.8083-0.0984 1.1982-0.048 2.5685-0.0972a164.84 164.84 0 0 1 2.6153-0.0738q1.2474-0.0492 1.9805-0.0492 0.17222 0.8328 0.2694 2.7395 0.0984 1.8821 0.0984 4.2058 0 2.202-0.0738 4.5724-0.0738 2.3471-0.22142 4.5232a62.737 62.737 0 0 1-0.31738 3.7901q-0.19559 1.6385-0.41456 2.3717m-3.5699-24.915q-2.5673 0-4.4014-1.4676-1.8083-1.4663-1.8095-3.961 0-1.6619 0.85618-2.8613a5.5971 5.5971 0 0 1 2.1995-1.8329 6.5197 6.5197 0 0 1 2.8613-0.66182q2.3963 0 4.0103 1.5155 1.6385 1.5168 1.6385 3.9364 0 2.2745-1.5647 3.8147-1.5414 1.5168-3.7901 1.5168m23.375 24.133q-0.7836 0.66058-2.9339 1.272-2.1527 0.63476-4.6216 0.63476-3.1295 0-4.7926-1.3446-1.6632-1.3445-2.2745-3.838-0.61015-2.5181-0.61015-5.9416 0-3.0077 0.0492-5.7952 0.048-2.8121 0.12178-5.404 0.0984-2.5919 0.19559-4.9636 0.12179-2.3963 0.2448-4.5724 0.12179-2.1773 0.24357-4.1333 2.1774-0.14515 3.9856-0.14515a52.896 52.896 0 0 1 4.8418 0.21896q-0.14761 2.3963-0.3186 5.0866a638.44 638.44 0 0 0-0.31738 5.3548q-0.14762 2.6645-0.2694 5.0608a387.49 387.49 0 0 0-0.19559 4.2304q-0.0738 1.8095-0.0738 2.7629 0 1.3938 0.0984 2.5181 0.12301 1.1244 0.4896 1.7849 0.39118 0.66059 1.149 0.66059 0.75776 0 1.2474-0.29401 0.51297-0.29277 0.83157-0.78237 0.16976 0.36905 0.58678 1.4676 0.43916 1.0998 0.92876 2.4209 0.51296 1.3199 0.90538 2.3963 0.39118 1.0518 0.48836 1.3445m-186.67 10.566q-0.14762-0.63721-0.2694-1.8587-0.0984-1.2474-0.17099-2.6165a292.77 292.77 0 0 1-0.12302-2.4455q-0.0234-1.0751-0.0234-1.4171 2.7125-0.22142 6.1618-0.36781 3.4469-0.17099 6.9934-0.17099 2.7383 0 5.3548 0.12301 2.6165 0.12179 4.768 0.44039 0 2.5907-0.19682 4.7668-0.19436 2.1527-0.46377 3.1787h-2.8367q-0.87955-0.0246-1.7345-0.0246-0.83157-0.0246-1.4442-0.048 0.0492 0.90538 0.12301 2.5919 0.0984 1.6865 0.1956 3.838 0.12178 2.1281 0.24479 4.4752 0.14762 2.3225 0.26817 4.5478 0.12302 2.2253 0.22143 4.0595 0.0972 1.8083 0.16976 2.9585 0.0726 1.1502 0.0738 1.2953-1.2474 0.19682-3.2033 0.34198a77.499 77.499 0 0 1-3.8626 0.24603 63.967 63.967 0 0 1-3.1307 0.0972 268.17 268.17 0 0 1-0.26817-7.3353l-0.0984-4.4014a426.86 426.86 0 0 1-0.0984-8.5089v-2.1528q0.0246-1.0272 0.0492-1.8575-0.75654 0.0738-1.5647 0.12302-0.80697 0.0246-1.6619 0.0738l-1.7124 0.048zm34.647 23.791q-0.68396 0.12178-1.9313 0.19559-1.2215 0.0738-2.5673 0.0738-1.5881 0-2.9339-0.12302-1.3458-0.0984-1.9805-0.34198 0.17099-1.3212 0.31737-3.4727 0.17222-2.1761 0.2694-4.9144 0.12302-2.7629 0.12302-5.794 0-3.4001-0.12302-6.9454a281.7 281.7 0 0 0-0.3186-6.8949 537.57 537.57 0 0 0-0.34198-6.0892q0.19682-0.0738 1.3199-0.24356a131.62 131.62 0 0 1 5.5024-0.70856q1.3692-0.14762 2.0297-0.14762 0.39119 1.8329 0.70856 4.2304 0.31738 2.3975 0.53758 5.281 0.24602 2.8601 0.3432 6.163 0.83035-0.83157 2.0297-1.443a11.071 11.071 0 0 1 2.5661-0.92999 11.317 11.317 0 0 1 2.7149-0.34198q3.1541 0 4.768 1.0998 1.6361 1.0764 2.2241 3.2279 0.58678 2.1269 0.58678 5.3056 0 2.0297-0.17099 4.3289a73.808 73.808 0 0 1-0.41579 4.4248 47.975 47.975 0 0 1-0.56217 3.7655q-1.0518 0.17222-2.1515 0.2694-1.0997 0.0984-2.2007 0.0984-1.1982 0-2.3717-0.12301a19.682 19.682 0 0 1-2.1761-0.29277q0.17222-1.053 0.36659-2.5439 0.19682-1.5155 0.36658-3.0803 0.19682-1.5893 0.294-2.9585 0.12302-1.3692 0.12302-2.1774 0-1.0985-0.27064-1.8083-0.24233-0.70979-0.73316-1.0518-0.46376-0.34198-1.149-0.34198a3.6904 3.6904 0 0 0-1.1244 0.17099q-0.5388 0.17222-1.0272 0.46499a6.1507 6.1507 0 0 0-0.92876 0.68396 7.3808 7.3808 0 0 0-0.80697 0.83157q0 2.3963-0.14762 4.7188a70.118 70.118 0 0 1-0.34198 4.255 45.515 45.515 0 0 1-0.41578 3.1787m43.182-3.7901q-0.78237 0.92876-1.8821 1.6865a11.071 11.071 0 0 1-2.5193 1.2966q-1.4184 0.51297-3.2279 0.78237-1.8083 0.29278-4.0103 0.29278-3.7162 0-6.6501-1.3446a10.456 10.456 0 0 1-4.5724-4.0841q-1.6632-2.7137-1.6632-6.8211 0-4.255 1.6632-7.4337 1.6878-3.1774 4.7434-4.939 3.0557-1.7591 7.2135-1.7591 5.2318 0 8.3133 2.7617 3.0815 2.7383 3.0803 7.7757 0 0.97797-0.0738 1.7357-0.0738 0.73439-0.26817 1.6139a51.666 51.666 0 0 0-1.7357-0.0492q-1.3212-0.0246-2.9585-0.0492-1.614-0.0246-2.9597-0.048a120.55 120.55 0 0 0-1.7591-0.0246q-1.8833 0-3.4973 0.17221a28.293 28.293 0 0 0-2.4935 0.31738q-1e-3 0.29277 0.0246 0.61138 0.0492 0.29277 0.14639 0.56217a2.7063 2.7063 0 0 0 0.85494 1.149q0.58678 0.46499 1.4184 0.70979 0.83035 0.22019 1.7849 0.22019 0.68519 0 1.3445-0.0984a6.5197 6.5197 0 0 0 1.3212-0.34198 7.1348 7.1348 0 0 0 1.3445-0.70979 10.21 10.21 0 0 0 1.4184-1.1244q0.14762 0.12179 0.85618 0.85618 0.73317 0.73193 1.6619 1.8083 0.92999 1.0776 1.7849 2.2745 0.85618 1.1736 1.2966 2.2007m-14.842-13.546a20.912 20.912 0 0 1 1.7837-0.22019q1.1022-0.0984 2.5919-0.0984a47.975 47.975 0 0 1 2.6903 0.0738q0-0.31738-0.12302-0.73317a2.3373 2.3373 0 0 0-0.65935-1.0764 3.1984 3.1984 0 0 0-1.149-0.75777 3.8749 3.8749 0 0 0-1.5414-0.294q-1.1982 0-1.9805 0.5634a3.6166 3.6166 0 0 0-1.1736 1.2707q-0.36658 0.73316-0.43916 1.272m26.626-4.8418q0.44039-1.0259 1.443-2.0051 1.0026-1.0026 2.4701-1.6373 1.4909-0.66059 3.3005-0.66059 1.0998 0 2.1761 0.2448 1.0764 0.24357 1.5155 0.58678l-1.8821 9.6824a20.912 20.912 0 0 0-1.3199-0.44039 5.4126 5.4126 0 0 0-1.737-0.26817q-0.92875 0-1.7591 0.29277a5.2896 5.2896 0 0 0-1.5168 0.80697q-0.68396 0.53881-1.3212 1.3199 0.19559 1.2486 0.46499 3.2525 0.294 2.0051 0.56217 4.1579 0.26941 2.149 0.44039 3.9118 0.1956 1.7345 0.1956 2.5181-2.1774 0.294-4.9144 0.39118-2.7371 0.0972-5.3548 0.0984 0-1.9067-0.12302-4.5737a206.66 206.66 0 0 0-0.75776-11.517q-0.24357-2.8601-0.53757-5.1592-0.29524-2.3213-0.58678-3.6178a44.285 44.285 0 0 1 3.2759-0.759 71.348 71.348 0 0 1 3.1787-0.58678q1.395-0.21896 1.7603-0.24356 0.29523 0.61014 0.66058 1.9559 0.36658 1.3199 0.36658 2.2487m22.936 22.422q-3.0065 0-5.5024-0.80697-2.4935-0.83034-3.9856-2.6891-1.4909-1.8575-1.4909-4.939 0-3.1541 1.7849-4.9882 1.7849-1.8575 4.6216-2.6411a21.65 21.65 0 0 1 5.9662-0.80698q1.0259 0 1.9559 0.17222 0.95335 0.14762 1.6865 0.41456 0.73439 0.24603 1.1256 0.5388 0-0.5142-0.24603-1.149a2.5833 2.5833 0 0 0-0.68396-1.0272 5.7817 5.7817 0 0 0-1.5155-0.97796q-0.90416-0.41701-2.5673-0.41578-1.5881 0-2.9339 0.75776-1.347 0.75777-2.0543 1.6386l-7.3107-4.6954q1.1256-1.5155 3.0569-2.6399 1.9559-1.1502 4.3756-1.7849a20.051 20.051 0 0 1 5.062-0.63598q4.4752 0 7.1397 1.3199 2.6891 1.2966 4.0349 3.8626 0.61015 1.1502 1.0026 2.5685 0.38996 1.4171 0.58678 3.0803 0.12178 1.1244 0.17099 2.3717 0.0738 1.2228 0.0738 2.5673 0 2.0297 0.36658 2.6657 0.39118 0.61138 1.0505 0.61138 0.56217 0 1.0272-0.12302 0.48836-0.14762 0.68518-0.34198l2.6645 6.382q-0.36659 0.51297-1.5647 1.0764-1.1994 0.53757-3.2279 0.53757-1.4417 0-2.8355-0.44039-1.3692-0.43916-2.3237-1.2474-0.92875-0.83034-1.0751-1.9805-0.31737 0.95459-1.4676 1.8341-1.149 0.85618-3.0557 1.3938-1.908 0.5388-4.597 0.53757m2.1269-7.0167q0.87955 0 1.8575-0.2694a11.686 11.686 0 0 0 1.8108-0.63598q0.80698-0.36535 1.1244-0.63475a7.3808 7.3808 0 0 1-0.14762-0.80697 11.071 11.071 0 0 1-0.048-0.83158q-0.44039-0.19682-1.6139-0.34198a14.762 14.762 0 0 0-2.2253-0.17222q-1.0013 0-2.0051 0.14762-0.97796 0.14762-1.6373 0.53757-0.66059 0.36781-0.66059 1.0998 0 0.66058 0.41579 1.0764t1.1982 0.63598q0.80574 0.19559 1.9313 0.19559m18.314 17.776q0.24357-4.2058 0.41579-8.7783 0.16976-4.5737 0.26817-8.9726 0.12301-4.426 0.19682-8.1927a647.05 647.05 0 0 0 0.12178-10.171q1.8821-0.61138 4.303-0.85495a43.055 43.055 0 0 1 4.7188-0.27063q0.0984 0.90661 0.17222 1.9326 0.0726 1.0026 0.0726 1.8821 0.39118-0.58555 1.4663-1.4909 1.0776-0.90416 2.7875-1.614 1.7124-0.70856 3.9856-0.70856 5.062 0 7.3353 3.2033 2.2991 3.1774 2.2991 8.8755 0 3.9856-1.6139 6.8457-1.5881 2.8613-4.2551 4.3768-2.6645 1.5168-5.8678 1.5168-1.3925 0-2.7875-0.3186a12.301 12.301 0 0 1-2.4209-0.85495q-1.0505-0.5142-1.443-1.0518 0 0.63598-0.0492 1.9805a281.7 281.7 0 0 1-0.19436 6.382q-0.0738 1.7099-0.14762 3.1541-0.0738 1.4663-0.14638 2.3225-1.6127 0.31738-3.3989 0.4896a67.658 67.658 0 0 1-5.8186 0.31738m14.891-21.86q1.1969 0 2.1269-0.46376a3.5674 3.5674 0 0 0 1.4676-1.3458q0.53757-0.90415 0.53757-2.1515 0-1.7603-0.80697-2.6891-0.80697-0.95335-2.8367-0.95335-1.2707 0-2.2499 0.34197a5.6586 5.6586 0 0 0-2.7629 1.8821q1e-3 0.3186-0.0246 0.80697 1e-3 0.46499-0.0246 0.97796 1e-3 0.5142-0.0246 0.95459 1e-3 0.44039-0.0234 0.68396 0.39118 0.41579 0.92875 0.88078 0.56218 0.44039 1.443 0.75776 0.88078 0.31738 2.2499 0.31738m25.502 23.595q-3.9364 0-7.1151-1.1736-3.1553-1.1477-5.3302-2.5673 0.36658-1.0026 1.1244-2.5673 0.75776-1.5647 1.5647-3.0323 0.8082-1.4676 1.2966-2.1515 0.97919 0.61261 2.3963 1.2966 1.4417 0.70856 3.0803 1.1982a11.071 11.071 0 0 0 3.2771 0.51297q1.4909 0 2.4935-0.78237 1.0272-0.78114 1.6632-2.0543a10.825 10.825 0 0 0 0.92875-2.7383q0.31738-1.4909 0.36659-2.8847a7.1348 7.1348 0 0 1-1.6139 1.6619 8.611 8.611 0 0 1-2.1269 1.1256q-1.1256 0.41579-2.2499 0.41579-3.9364 0-6.1372-2.0543-2.2007-2.0543-3.0803-5.5012-0.88078-3.4727-0.88078-7.7265 0-1.6632 0.0738-3.4973 0.0738-1.8341 0.17099-3.838 0.4896-0.12301 1.4676-0.17222 1.0026-0.0492 2.1761-0.0492 1.7099 1e-3 3.3497 0.0984 1.6607 0.0984 2.2487 0.22142-0.0984 0.46376-0.26818 1.5881-0.1476 1.101-0.26939 2.5919-0.12301 1.4663-0.12301 3.0077 0 1.272 0.12301 2.4701 0.12301 1.1736 0.41578 2.1269 0.294 0.92999 0.80697 1.4922 0.53881 0.56094 1.3199 0.56217 1.5893 0 2.4455-1.3212 0.87955-1.3445 1.2228-3.6424 0.34198-2.2979 0.34198-5.1838 0-0.75777-0.0246-1.3445 0-0.58678-0.0246-1.0272a8.611 8.611 0 0 0-0.0738-0.78237 17.222 17.222 0 0 0-0.048-0.5388 44.285 44.285 0 0 1 1.3692-0.0738q0.68518-0.048 1.3458-0.048 2.7629 0 5.5984 0.61138 0.14761 3.2279 0.14761 7.2615 0 2.1774-0.0492 4.5478-0.0246 2.3483-0.12302 4.7926-0.0738 2.4455-0.21896 4.939-0.22143 4.2317-1.7124 7.4337-1.4663 3.202-4.303 4.9882-2.8121 1.8083-7.0426 1.8083" fill="#fff" stroke-width="1.2301"/>
<g transform="matrix(1.1419 0 0 1.1419 -23.164 -19.765)">
<path d="m176.4 111.02c4.7009-0.0922 4.7061 7.005 5e-3 6.9195-4.5267-0.0823-4.5316-6.8307-5e-3 -6.9195m-4.4199 7.2308c0.25218 0.0123 0.5388 0.0652 0.8365 0.18821 0.59046 0.24603 0.94105 0.66305 1.1256 0.91276 0.33214 0.47484 0.61876 0.98043 0.91646 1.4786 0.32844 0.54988 0.59539 0.99642 0.85248 1.3938 0.36044 0.5511 0.61507 0.8611 0.8365 1.0604 0.31492 0.28293 0.76269 0.5511 2.3692 0.58678 2.6325 0.0271 2.5956 3.977-0.0369 3.9549-2.0211-0.048-3.6474-0.40349-4.9772-1.6016-0.36266-0.33019-0.6915-0.69571-0.98165-1.0911l-1.2338 1.5377 1.1699 1.1551 2.0051 1.9768 1.2388 1.224c0.1796 0.17714 0.32353 0.3875 0.4244 0.61999l2.0519 4.7299c1.0456 2.4172-2.5821 3.9893-3.6289 1.5721l-1.8969-4.3768-3.0077-2.9671-0.60277 2.1823-0.68519 2.3078c-0.0492 0.17057-0.12096 0.33049-0.21527 0.47975l-1.6299 2.6325c-1.39 2.2388-4.752 0.15377-3.362-2.0876l1.4922-2.4025 1.0136-3.4198c0.47975-1.8956 0.31737-1.4024 0.60276-2.4726-0.11932-0.20667-1.3654-2.5341 0.38873-5.9305 0.37755-0.73582 0.84984-1.419 1.4048-2.0322 0.44162-0.47975 1.1293-1.1108 1.9682-1.3507 0.66797-0.20543 1.1637-0.2817 1.5598-0.25956z" fill="#fff" fill-rule="evenodd" stroke-width="1.2301"/>
<path d="m186.92 125.57 0.93493-0.18483c0.23812-0.0471 0.46932 0.10782 0.5164 0.34594l0.20544 1.0392c0.0141 0.0708 0.0828 0.11693 0.15373 0.10298l1.0392-0.20544c0.23812-0.0471 0.46933 0.10781 0.51641 0.34593l0.18483 0.93494c0.0471 0.23812-0.10782 0.46932-0.34594 0.5164l-1.0392 0.20544c-0.0708 0.0141-0.11692 0.0828-0.10298 0.15371l0.20552 1.0396c0.0471 0.23812-0.10781 0.46932-0.34593 0.5164l-0.93493 0.18483c-0.23812 0.0471-0.46932-0.10781-0.5164-0.34593l-0.20552-1.0396c-0.0141-0.0708-0.0829-0.11691-0.15372-0.10297l-1.0396 0.20553c-0.23812 0.0471-0.46932-0.10781-0.5164-0.34593l-0.18483-0.93494c-0.0471-0.23812 0.10781-0.46932 0.34593-0.5164l1.0396-0.20552c0.0708-0.0141 0.11693-0.0828 0.10297-0.15373l-0.20543-1.0392c-0.0471-0.23812 0.1078-0.46933 0.34592-0.51641z" fill="#fff" stroke-width=".20933"/>
<path d="m194.86 121.26 1.3749 0.13812c0.35019 0.0352 0.60555 0.3476 0.57039 0.6978l-0.15352 1.5283c-0.0104 0.10418 0.0656 0.19718 0.1698 0.20773l1.5283 0.15353c0.3502 0.0352 0.60558 0.3476 0.57041 0.69779l-0.13812 1.375c-0.0352 0.35019-0.34761 0.60555-0.69781 0.57039l-1.5283-0.15353c-0.10418-0.0104-0.19716 0.0656-0.20772 0.16978l-0.15359 1.5289c-0.0352 0.3502-0.3476 0.60556-0.6978 0.5704l-1.3749-0.13812c-0.35019-0.0352-0.60556-0.3476-0.5704-0.6978l0.15359-1.5289c0.0104-0.10418-0.0656-0.19715-0.16979-0.2077l-1.5289-0.15359c-0.35018-0.0352-0.60555-0.3476-0.57039-0.69779l0.13813-1.375c0.0352-0.35018 0.34759-0.60555 0.69778-0.57039l1.5289 0.15359c0.10417 0.0104 0.19717-0.0656 0.20771-0.16981l0.15353-1.5283c0.0352-0.35019 0.3476-0.60556 0.6978-0.5704z" fill="#fff" stroke-width=".30353"/>
<path d="m179.33 126.01 3.265 0.88923 1.7757 5.0844h13.919l2.3349-5.5426" fill="none" stroke="#fff" stroke-linecap="round" stroke-linejoin="round" stroke-width="2" style="paint-order:stroke fill markers"/>
<path d="m184.37 131.99-1.3519 4.4151h15.355" fill="none" stroke="#fff" stroke-linecap="round" stroke-linejoin="round" stroke-width="2" style="paint-order:stroke fill markers"/>
<path d="m184.27 137.4c-9e-5 1.0326 0.83701 1.8697 1.8696 1.8696 1.0324-1.1e-4 1.8693-0.83715 1.8692-1.8696-1.3e-4 -0.17462-3.7386-0.17464-3.7388 0z" fill="#fff" stop-color="#000000" stroke-linecap="round" stroke-linejoin="round" stroke-width="1.3599" style="-inkscape-stroke:none;font-variation-settings:normal;paint-order:stroke fill markers"/>
<path d="m193.8 137.4c-9e-5 1.0326 0.83701 1.8697 1.8696 1.8696 1.0324-1.1e-4 1.8693-0.83715 1.8692-1.8696-1.3e-4 -0.17462-3.7386-0.17464-3.7388 0z" fill="#fff" stop-color="#000000" stroke-linecap="round" stroke-linejoin="round" stroke-width="1.3599" style="-inkscape-stroke:none;font-variation-settings:normal;paint-order:stroke fill markers"/>
<path d="m170.42 118.51c-0.65759 0.0348-1.0581 0.0125-1.3497-0.0484-0.41433-0.0869-0.89524-0.28978-1.8732-1.5649-1.5771-2.1079-4.7422 0.25544-3.1691 2.3663 1.2328 1.6023 2.4804 2.7044 4.2327 3.0694 0.48067 0.0975 0.96986 0.14691 1.4603 0.14738" fill="#fff" fill-rule="evenodd" stroke-width="1.2301"/>
<rect transform="rotate(39.847)" x="203.02" y="-19.055" width="1.3841" height="2.8437" ry=".66423" fill="#fff" style="-inkscape-stroke:none;font-variation-settings:normal;paint-order:stroke fill markers"/>
</g>
</g>
</svg>

