<?xml version="1.0" encoding="UTF-8"?>
<svg width="13.001mm" height="9.5511mm" version="1.1" viewBox="0 0 13.001 9.5511" xmlns="http://www.w3.org/2000/svg">
<g transform="translate(-143.65 -82.218)">
<title>Retail Therapy</title>
<g transform="matrix(.29646 0 0 .29646 143.14 81.587)">
<g>
<path d="m16.76 2.1294c-5.169 0.101-5.1638 7.8076 0.0052 7.9016 5.368 0.098 5.3628-8.0066-0.0052-7.9016zm-9.4006 5.3723c-0.22623-4.951e-4 -0.44092 0.099822-0.58569 0.27367l-0.70596 0.84541c-1.85-2.009-5.1719 0.59046-3.4339 2.9215 0.863 1.122 1.7334 2.0258 2.7384 2.6548 0.39-0.689 0.97333-1.4534 1.6263-2.1684 0.472-0.517 0.97068-1.0005 1.4747-1.3875-0.365-0.07-0.72686-0.16009-1.3649-0.80009l0.87679-1.0528c0.26951-0.32125 0.22652-0.80038-0.095872-1.0685l-0.048807-0.040092c-0.13492-0.11322-0.30498-0.17607-0.4811-0.1778zm4.3526 2.8849v0.0017c-3.228-0.18-5.6492 4.2152-5.7122 4.3282-0.738 1.49-1.5403 4.0139-0.36431 6.6029-0.326 1.222-0.14053 0.65885-0.68853 2.8239l-1.1574 3.9046-1.7048 2.7437c-1.587 2.56 2.2521 4.9406 3.8401 2.3846l1.8599-3.0069c0.108-0.17 0.18978-0.352 0.24578-0.54734l0.78266-2.6356 0.68853-2.4909 3.4339 3.3869 2.1667 4.9993c1.196 2.76 5.3374 0.96285 4.1434-1.7972l-2.3428-5.4002c-0.11572-0.2642-0.28011-0.50428-0.48459-0.70771l-1.4137-1.398-2.2905-2.2573-1.337-1.3195 1.4102-1.7553c0.332 0.45333 0.70549 0.869 1.1208 1.2463 1.519 1.368 3.3763 1.7725 5.6843 1.8285 0.68461 0.0055 1.1944-0.24122 1.5705-0.59963l1.7867 0.48633 1.7048 4.886-1.4346 4.689c-0.22473 0.73377 0.32378 1.4759 1.0912 1.4764h1.4311c0.0633 2.7819 4.2056 2.7819 4.2689 0h6.6134c0.0633 2.7819 4.2056 2.7819 4.2689 0h0.95174c0.63165 0.0019 1.1445-0.51009 1.1435-1.1417 9.68e-4 -0.63165-0.51184-1.1437-1.1435-1.1417h-15.988l0.84716-2.7646h15.047c0.45916-5.7e-5 0.87347-0.27558 1.0511-0.69899l2.6687-6.331c0.24465-0.58098-0.02867-1.2502-0.61009-1.4939-0.58098-0.24602-1.2513 0.02664-1.4956 0.60835l-2.3706 5.6303h-14.325l-1.7605-5.0394c-0.12436-0.35599-0.4167-0.62746-0.78092-0.72514l-2.3515-0.64147c-0.2038-0.9112-0.89509-1.7024-2.1423-1.7152-1.835-0.04-2.3471-0.34636-2.7071-0.66936-0.253-0.227-0.54323-0.58247-0.95523-1.2115-0.33336-0.52485-0.65763-1.0554-0.97266-1.5915-0.34-0.568-0.66687-1.1471-1.0459-1.6891-0.21-0.285-0.61142-0.75964-1.2864-1.0406-0.30331-0.12549-0.62572-0.19858-0.95349-0.21615zm26.047 3.4339c-0.37249 8.41e-4 -0.68408 0.28308-0.72165 0.65367l-0.17606 1.7466c-0.01236 0.11872-0.11828 0.20516-0.23706 0.19349l-1.7449-0.17606c-0.39963-0.03874-0.75554 0.25252-0.7966 0.65193l-0.15862 1.5705c-0.04 0.4 0.25192 0.7566 0.65192 0.7966l1.7449 0.17431c0.11942 0.01147 0.20687 0.11766 0.19523 0.23706l-0.17606 1.7466c-0.04 0.4 0.25193 0.7566 0.65193 0.7966l1.5688 0.15862c0.4 0.04 0.75835-0.25193 0.79835-0.65193l0.17431-1.7449c0.01147-0.11942 0.11766-0.20687 0.23706-0.19523l1.7449 0.17606c0.4 0.04 0.7566-0.25193 0.7966-0.65193l0.15862-1.5688c0.03976-0.40028-0.25178-0.7573-0.65193-0.79835l-1.7449-0.17606c-0.11872-0.01236-0.20516-0.11828-0.19349-0.23706l0.17606-1.7449c0.03874-0.39963-0.25252-0.75554-0.65193-0.7966l-1.5705-0.15688zm-7.8231 4.7029v0.0017c-0.03383 0.0012-0.06757 0.0041-0.1011 0.0087l-1.0668 0.21092c-0.27258 0.05251-0.4502 0.31699-0.39569 0.58917l0.23532 1.1871c0.01593 0.08136-0.03716 0.16021-0.11853 0.17605l-1.1871 0.23358c-0.27269 0.0533-0.44963 0.3187-0.39394 0.59092l0.20917 1.0668c0.0533 0.27269 0.3187 0.44963 0.59092 0.39394l1.1871-0.23358c0.08136-0.01593 0.16021 0.03716 0.17606 0.11853l0.23358 1.1871c0.0533 0.27269 0.3187 0.44963 0.59092 0.39394l1.0668-0.21092c0.27258-0.05251 0.4502-0.31699 0.39569-0.58917l-0.23532-1.1871c-0.01601-0.0808 0.03612-0.15939 0.11679-0.17605l1.1871-0.23358c0.2734-0.05247 0.4513-0.31814 0.39569-0.59092l-0.21092-1.0668c-0.0525-0.27258-0.31699-0.45021-0.58917-0.39569l-1.1871 0.23532c-0.08136 0.01593-0.16021-0.03716-0.17606-0.11853l-0.23532-1.1853c-0.04482-0.23457-0.24927-0.40469-0.48807-0.40615z"/>
</g>
</g>
</g>
<style>path { fill: black; }
      @media (prefers-color-scheme: dark) {
         path { fill: white; }
      }</style>
</svg>
